<?xml version="1.0" encoding="utf-8"?>
<!-- Generator: Adobe Illustrator 16.0.0, SVG Export Plug-In . SVG Version: 6.00 Build 0)  -->
<!DOCTYPE svg PUBLIC "-//W3C//DTD SVG 1.1//EN" "http://www.w3.org/Graphics/SVG/1.1/DTD/svg11.dtd">
<svg version="1.1" xmlns="http://www.w3.org/2000/svg" xmlns:xlink="http://www.w3.org/1999/xlink" x="0px" y="0px" width="744px"
	 height="496px" viewBox="0 0 744 496" enable-background="new 0 0 744 496" xml:space="preserve">
<g id="svg16" xmlns:dc="http://purl.org/dc/elements/1.1/" xmlns:cc="http://creativecommons.org/ns#" xmlns:rdf="http://www.w3.org/1999/02/22-rdf-syntax-ns#" xmlns:svg="http://www.w3.org/2000/svg" xmlns:sodipodi="http://sodipodi.sourceforge.net/DTD/sodipodi-0.dtd" xmlns:inkscape="http://www.inkscape.org/namespaces/inkscape" inkscape:version="0.92.1 r15371" inkscape:export-ydpi="96" inkscape:export-xdpi="96" inkscape:export-filename="C:\Users\Eva\Downloads\Proposed_flag_of_Antarctica_(Graham_Bartram).png" sodipodi:docname="Antarticaaaa.svg">
	
		<sodipodi:namedview  inkscape:cy="244.07594" inkscape:cx="367.68579" inkscape:zoom="1.2545443" showgrid="false" guidetolerance="10" gridtolerance="10" objecttolerance="10" bordercolor="#666666" pagecolor="#ffffff" borderopacity="1" id="namedview18" inkscape:current-layer="layer4" inkscape:window-maximized="1" inkscape:window-y="-8" inkscape:window-x="-8" inkscape:window-height="837" inkscape:window-width="1600" inkscape:pageshadow="2" inkscape:pageopacity="0">
		</sodipodi:namedview>
	<g id="layer2" inkscape:label="antartika" sodipodi:insensitive="true" inkscape:groupmode="layer">
		<rect id="rect2" fill="#85B2E8" width="744" height="496"/>
		<path id="path4" inkscape:connector-curvature="0" inkscape:export-ydpi="96" inkscape:export-xdpi="96" fill="#FFFFFF" d="
			M184.545,238.539c-4.053-8.108-4.053-8.108-4.053-16.215c-2.027,0-2.407,0.381-3.579,0.062c-1.172-0.316-1.615,7.476-5.416,5.955
			c-0.633-0.76,2.724-6.396-0.918-8.739c-1.172-0.763,0.285-5.386-0.222-7.413c0,0-4.623,2.406-8.107-6.08
			c-1.711-2.218-4.054,2.026-4.054,2.026s1.013,2.597-0.823,3.231c-2.597-1.901-4.498-0.904-7.791-3.516
			c-3.294-2.613,0.697-5.605-5.574-7.822c4.054-10.134,4.054-8.108,14.188-12.161c-6.081-4.054-6.081-4.054-10.134-10.135
			c-6.081-2.027-8.108-4.053-14.189-8.107c-8.107-10.135-12.161-30.403-12.161-44.591c5.131-4.751,12.161,16.215,22.296,22.295
			l14.188,6.081c8.107,4.054,10.134,8.107,16.215,12.161l18.242,6.081c8.107,6.08,12.161,14.188,18.242,16.215
			c6.587,0,7.856-3.794,9.968-4.03c11.916-0.611,17.997-2.146,20.372-5.725c2.406-2.85,8.17,1.647,24.385-4.433l-2.026-8.108
			c0,0,4.307-3.547,10.134-2.027c-0.158-3.705-0.539-13.586,5.201-18.044c-3.486-3.657-1.147-6.278-1.147-6.278
			s3.231-3.104,3.61-4.751c-1.709-8.931,1.483-9.069,2.199-11.697c0.715-2.627-2.757-1.727-1.778-5.349
			c0.977-3.623,6.849-4.483,7.635-7.467c0.789-2.984-1.674-4.481-1.532-5.193c1.267-2.85,0.191-9.564,0-12.162
			c10.895-2.914,14.442-11.781,18.242-8.107c2.026-12.162,4.054-16.215,16.215-16.215c1.711-3.737-4.436-6.904-2.027-8.107
			c4.055-0.507,7.157-0.253,11.91,5.891c1.5,1.947,1.772-2.851,3.292-3.357c1.521-0.507,5.158-0.515,5.699-2.914
			c0.572-2.47,1.395-5.701,3.422-9.754c1.71-3.294,3.04,1.267,4.56,7.728c8.553,0.316,27.87,2.217,35.978,4.434
			c6.081,1.583,10.135-1.583,15.962-2.217c4.307,4.307,8.361,1.077,10.641,10.261c3.22,4.956,8.487,0.444,9.628,1.9
			c6.778,18.686,30.087,6.081,31.86,6.397c2.977,0,6.612,8.354,8.955,8.147c3.808-0.641,2.73-3.238,6.056-2.193
			c-0.888,7.03,6.525,15.138,6.525,20.395c0,0,1.804,0.887,3.476-0.673c1.67-1.559,3.206-5.565,4.694-5.471
			c3.547,0.507,4.984,0.962,9.072,1.677c10.989,3.755,16.588,4.602,20.856,6.526c1.986,3.634,3.91,5.495,7.936,4.816
			c3.326,2.234,0.899,5.16,2.863,5.35c4.055-2.027,5.385-4.244,9.438-2.217c4.054,2.027,8.108,6.081,10.135,10.135
			c0,2.026-2.026,10.134,0,22.295c1.014,4.054,1.504,7.268,5.859,14.22c-1.157,7.142,8.839,18.66,8.839,21.701
			c0,4.053-1.14,5.947-3.167,10c10.041,7.125-2.091,16.412-6.144,22.493c30.403,6.081,12.854,18.742,37.177,12.661
			c-6.081,14.188-3.928,13.049,2.152,27.237c-12.161,8.108-0.252,10.577-8.358,20.711c-0.507,0.635,4.812,8.806,12.287,8.806
			c-2.027,16.215-8.108,10.134-6.081,34.457c-15.962-0.316-9.502,18.179-20.27,16.215c0.634,11.591,6.145,12.604,4.055,24.321
			c-8.107,2.027-8.107,2.027-12.161,8.108l-6.081-2.026c-2.027,10.134-6.08,12.16,0,22.295c0,0-7.854,0.254-10.134,0
			c-0.191,3.484,3.483,4.435,4.054,8.107c-0.317,1.457-11.529,7.854-20.269,8.108c-2.28,5.004,6.079,10.325,5.573,12.858
			c-9.502,1.836-13.682,13.49-13.682,13.49s4.877,1.964,4.054,4.054c-2.596-1.9-4.054-2.026-8.106-2.026
			c-2.027,0.507-6.967-0.124-11.704,7.87c-5.199,1.715-7.653,1.095-11.598,6.31c-1.745-4.968-4.257,0.047-7.327,1.974
			c-3.068,1.931-7.201,6.728-7.757,6.523c0.128-1.395,1.901-6.462,1.901-6.462l-10.135,2.027c0,0-0.452,0.044-1.248,0.125
			c-0.797,0.079-0.584-5.916-2.505-5.699c-1.92,0.219-7.415,7.54-9.288,7.769c-1.87,0.229-2.462-2.329-4.074-2.105
			c-1.611,0.223-4.753,7.722-5.894,7.921c-1.142,0.199-5.667-4.559-9.546-3.895c-19.953,7.032-23.121-13.869-26.225-2.089
			c-4.18-2.218-3.456-0.931-7.704,0.183c-2.71,0.698-2.957-3.583-5.367-3.518c-4.821,0.136-4.568,4.697-7.197,3.335
			c-2.152-9.502-15.14-7.792-16.405-11.845c-1.03-4.228,5.626-4.208,7.779-7.072c1.646-4.133-1.72-5.702,4.96-9.688
			c8.704-5.888,2.156-8.232,3.683-12.657c2.73-6.389,2.28-7.863,0-13.5c0,0-4.768-18.205-6.098-18.205
			c-4.054-1.139-4.054,6.713-10.008,8.868c-12.161,4.053-33.633-10.263-37.37-10.263c-3.419,0.064-19.26,3.752-18.661-4.146
			c-2.368,7.68-11.077,1.805-11.614,1.805c-8.108,0-5.005,6.271-10.453,6.017c-2.471-0.823-27.426-2.28-27.426-2.28v4.055
			l-16.215-8.108l-14.188-4.054c-12.161-4.054-6.08-14.188-26.349-8.107v-12.161h-10.134c4.053-24.323,0-12.161-2.027-34.457
			l-8.108,2.026c-8.107-10.957,11.274-8.867-6.08-16.215c0,0,0.316-12.099-4.054-8.107c-0.887,0.507,2.027,6.081,2.027,6.081
			c-16.215-2.027-20.269-6.081-20.269-22.296c0,0,13.365,1.9,12.161,0c-1.9-3.04-4.37-22.803-3.927-24.133
			c-0.19-2.66,12.415-9.374,9.976-15.772C179.985,238.601,184.545,238.539,184.545,238.539"/>
	</g>
	<g id="layer1" inkscape:label="obroba" sodipodi:insensitive="true" inkscape:groupmode="layer">
		
			<path id="path4503" sodipodi:nodetypes="ccccccccccccccccccccccccc" inkscape:connector-curvature="0" inkscape:export-ydpi="96" inkscape:export-xdpi="96" fill="none" stroke="#000000" d="
			M116.85,98.596l35.155,37.184l54.286,22.039l34.945-5.637l34.945-83.418l53.916-28.102l53.973-5.443l62.99,18.64l95.157,43.086
			l43.964,100.327l21.668,39.592l2.585,77.646l-51.308,101.454l-50.26,47.869l-109.813,11.353l-60.93-29.446l16.056-36.813
			l-36.153-3.028l-61.669-1.594l-65.849-33.432l-39.455-59.746l0.797-76.211l-23.399-29.752L111.89,154.67L116.85,98.596z"/>
		
			<path id="path4595" sodipodi:nodetypes="ccccc" inkscape:connector-curvature="0" inkscape:export-ydpi="96" inkscape:export-xdpi="96" fill="none" stroke="#000000" d="
			M439.637,98.636l-44.527,18.037l6.199-47.909l-37.764-15.782l-33.447-12.32"/>
		
			<path id="path4597" sodipodi:nodetypes="ccccc" inkscape:connector-curvature="0" inkscape:export-ydpi="96" inkscape:export-xdpi="96" fill="none" stroke="#000000" d="
			M395.109,116.673l-21.418-9.582l-27.055,5.637l12.149,47.732l65.068,16.522"/>
		
			<path id="path4599" inkscape:connector-curvature="0" inkscape:export-ydpi="96" inkscape:export-xdpi="96" fill="none" stroke="#000000" d="
			M346.637,112.728l-45.091,1.127l-25.364-45.091"/>
		
			<path id="path4601" sodipodi:nodetypes="cccccccc" inkscape:connector-curvature="0" inkscape:export-ydpi="96" inkscape:export-xdpi="96" fill="none" stroke="#000000" d="
			M358.786,160.459l-24.55,43.013l46.782,1.127l15.142,37.921l-48.396,3.788l-11.836,31.564L302.673,279l23.109,47.346"/>
		
			<path id="path4603" sodipodi:nodetypes="ccc" inkscape:connector-curvature="0" inkscape:export-ydpi="96" inkscape:export-xdpi="96" fill="none" stroke="#000000" d="
			M334.236,203.473l-34.769,7.037l3.205,68.49"/>
		
			<path id="path4605" sodipodi:nodetypes="cccc" inkscape:connector-curvature="0" inkscape:export-ydpi="96" inkscape:export-xdpi="96" fill="none" stroke="#000000" d="
			M291.739,361.289L261.527,347.2l3.945-25.928l-74.963,49.601"/>
		
			<path id="path4607" sodipodi:nodetypes="cccc" inkscape:connector-curvature="0" inkscape:export-ydpi="96" inkscape:export-xdpi="96" fill="none" stroke="#000000" d="
			M265.473,321.272l-38.544-35.009l15.435-35.445l58.094-12.634"/>
		
			<path id="path4609" sodipodi:nodetypes="ccc" inkscape:connector-curvature="0" inkscape:export-ydpi="96" inkscape:export-xdpi="96" fill="none" stroke="#000000" d="
			M334.236,203.473l-33.682-37.006l-59.318-14.285"/>
		
			<path id="path4611" sodipodi:nodetypes="ccc" inkscape:connector-curvature="0" inkscape:export-ydpi="96" inkscape:export-xdpi="96" fill="none" stroke="#000000" d="
			M206.291,157.818l-29.333,23.923l-58.031-9.269"/>
		
			<path id="path4613" sodipodi:nodetypes="cccc" inkscape:connector-curvature="0" inkscape:export-ydpi="96" inkscape:export-xdpi="96" fill="none" stroke="#000000" d="
			M176.958,181.741l18.624,40.895l-0.564,41.145l-43.167-28.865"/>
		
			<path id="path4615" inkscape:connector-curvature="0" inkscape:export-ydpi="96" inkscape:export-xdpi="96" fill="none" stroke="#000000" d="
			M195.582,222.636l46.782,28.182"/>
		
			<path id="path4617" sodipodi:nodetypes="ccc" inkscape:connector-curvature="0" inkscape:export-ydpi="96" inkscape:export-xdpi="96" fill="none" stroke="#000000" d="
			M226.929,286.264l-33.038,15.846l-42.836,9.018"/>
		
			<path id="path4619" sodipodi:nodetypes="ccc" inkscape:connector-curvature="0" inkscape:export-ydpi="96" inkscape:export-xdpi="96" fill="none" stroke="#000000" d="
			M300.555,166.466l-48.67,40.983l-56.302,15.187"/>
		
			<path id="path4621" inkscape:connector-curvature="0" inkscape:export-ydpi="96" inkscape:export-xdpi="96" fill="none" stroke="#000000" d="
			M302.673,279l-22.89,16.928l-52.854-9.664"/>
		
			<path id="path4623" inkscape:connector-curvature="0" inkscape:export-ydpi="96" inkscape:export-xdpi="96" fill="none" stroke="#000000" d="
			M301.546,113.854l-0.991,52.612"/>
		
			<path id="path4625" sodipodi:nodetypes="ccc" inkscape:connector-curvature="0" inkscape:export-ydpi="96" inkscape:export-xdpi="96" fill="none" stroke="#000000" d="
			M469.493,392.377l44.638,28.695l44.996-5.108"/>
		
			<path id="path4551" inkscape:connector-curvature="0" inkscape:export-ydpi="96" inkscape:export-xdpi="96" fill="none" stroke="#000000" d="
			M542.218,96.945l-25.363,29.873l15.782,21.418l-14.091,25.927l63.69,10.146"/>
		
			<path id="path4553" sodipodi:nodetypes="cccccccc" inkscape:connector-curvature="0" inkscape:export-ydpi="96" inkscape:export-xdpi="96" fill="none" stroke="#000000" d="
			M518.546,174.164l-23.673,21.418l7.48,26.257l-19.881,19.397l24.8,29.873L539.4,254.2l-6.764-43.4L518.546,174.164"/>
		
			<path id="path4555" sodipodi:nodetypes="cccc" inkscape:connector-curvature="0" inkscape:export-ydpi="96" inkscape:export-xdpi="96" fill="none" stroke="#000000" d="
			M532.637,210.8l23.108,17.473l11.837-16.909l40.268,25.5"/>
		
			<path id="path4557" sodipodi:nodetypes="ccc" inkscape:connector-curvature="0" inkscape:export-ydpi="96" inkscape:export-xdpi="96" fill="none" stroke="#000000" d="
			M555.745,228.272c4.53,12.596,10.741,24.404,16.716,36.347l-2.061,18.326"/>
		
			<path id="path4559" sodipodi:nodetypes="ccc" inkscape:connector-curvature="0" inkscape:export-ydpi="96" inkscape:export-xdpi="96" fill="none" stroke="#000000" d="
			M570.4,282.945L581.673,310l28.762,4.51"/>
		
			<path id="path4561" sodipodi:nodetypes="cccccc" inkscape:connector-curvature="0" inkscape:export-ydpi="96" inkscape:export-xdpi="96" fill="none" stroke="#000000" d="
			M494.873,195.582l-20.291-39.455l-50.728,20.854l28.102,20.057l-33.738,18.833l64.255,25.364"/>
		
			<path id="path4563" inkscape:connector-curvature="0" inkscape:export-ydpi="96" inkscape:export-xdpi="96" fill="none" stroke="#000000" d="
			M516.854,126.818l-43.271-21.927l0.999,51.236"/>
		
			<path id="path4565" sodipodi:nodetypes="ccc" inkscape:connector-curvature="0" inkscape:export-ydpi="96" inkscape:export-xdpi="96" fill="none" stroke="#000000" d="
			M473.583,104.891l-7.456-28.237l-19.066-22.795"/>
		
			<path id="path4567" sodipodi:nodetypes="ccccc" inkscape:connector-curvature="0" inkscape:export-ydpi="96" inkscape:export-xdpi="96" fill="none" stroke="#000000" d="
			M466.127,76.654l-26.49,21.982l3.945,25.927l-31.563,14.655l11.836,37.764"/>
		
			<path id="path4569" sodipodi:nodetypes="ccccc" inkscape:connector-curvature="0" inkscape:export-ydpi="96" inkscape:export-xdpi="96" fill="none" stroke="#000000" d="
			M507.272,271.109l19.204,24.373l15.741,32.554l33.915,5.91l0.467,48.022"/>
		
			<path id="path4571" inkscape:connector-curvature="0" inkscape:export-ydpi="96" inkscape:export-xdpi="96" fill="none" stroke="#000000" d="
			M542.218,328.036l-39.454,19.728l40.019,21.982l16.345,46.218"/>
		
			<path id="path4573" sodipodi:nodetypes="ccccccc" inkscape:connector-curvature="0" inkscape:export-ydpi="96" inkscape:export-xdpi="96" fill="none" stroke="#000000" d="
			M482.473,241.236l-0.226,49.908l-11.957,25.508l19.72,18.357l-20.517,57.367l-11.159,44.638l50.533,26.818"/>
		
			<path id="path4575" sodipodi:nodetypes="cccc" inkscape:connector-curvature="0" inkscape:export-ydpi="96" inkscape:export-xdpi="96" fill="none" stroke="#000000" d="
			M458.334,437.015l-29.844,7.303l-37.113-20.854l-53.252,22.275"/>
		
			<path id="path4577" sodipodi:nodetypes="ccccc" inkscape:connector-curvature="0" inkscape:export-ydpi="96" inkscape:export-xdpi="96" fill="none" stroke="#000000" d="
			M354.181,408.927l-3.456-26.912l46.232-13.551l30.29,34.275l1.243,41.578"/>
		
			<path id="path4579" sodipodi:nodetypes="cccc" inkscape:connector-curvature="0" inkscape:export-ydpi="96" inkscape:export-xdpi="96" fill="none" stroke="#000000" d="
			M396.957,368.464l44.612-4.056l48.44-29.398l12.754,12.754"/>
		
			<path id="path4581" sodipodi:nodetypes="ccccc" inkscape:connector-curvature="0" inkscape:export-ydpi="96" inkscape:export-xdpi="96" fill="none" stroke="#000000" d="
			M318.027,406.695l-26.288-45.406l34.043-34.943L369.855,331l7.174,41.449"/>
		
			<path id="path4583" sodipodi:nodetypes="ccc" inkscape:connector-curvature="0" inkscape:export-ydpi="96" inkscape:export-xdpi="96" fill="none" stroke="#000000" d="
			M441.569,364.408l-31.858-46.959l72.762-76.213"/>
		
			<path id="path4585" sodipodi:nodetypes="ccc" inkscape:connector-curvature="0" inkscape:export-ydpi="96" inkscape:export-xdpi="96" fill="none" stroke="#000000" d="
			M409.711,317.449l-36.667-19.928l-47.262,28.824"/>
		
			<path id="path4587" inkscape:connector-curvature="0" inkscape:export-ydpi="96" inkscape:export-xdpi="96" fill="none" stroke="#000000" d="
			M418.218,215.873l-22.058,26.649l14.348,20.725l-37.464,34.275"/>
		
			<path id="path4655" sodipodi:nodetypes="ccc" inkscape:connector-curvature="0" inkscape:export-ydpi="96" inkscape:export-xdpi="96" fill="none" stroke="#000000" d="
			M346.637,112.728l5.683-35.206l-22.222-36.859"/>
		
			<path id="path4657" inkscape:connector-curvature="0" inkscape:export-ydpi="96" inkscape:export-xdpi="96" fill="none" stroke="#000000" d="
			M401.309,68.764l64.818,7.891"/>
		
			<path id="path4653" sodipodi:nodetypes="cc" inkscape:connector-curvature="0" inkscape:export-ydpi="96" inkscape:export-xdpi="96" fill="none" stroke="#000000" d="
			M470.29,316.652l-60.579,0.797"/>
		
			<path id="path4661" inkscape:connector-curvature="0" inkscape:export-ydpi="96" inkscape:export-xdpi="96" fill="none" stroke="#000000" d="
			M347.764,246.309l-48.296-35.799"/>
		<path id="path4763" inkscape:connector-curvature="0" fill="none" stroke="#000000" d="M526.477,295.482l43.924-12.537"/>
	</g>
</g>
<g id="stevilke">
	<text transform="matrix(1 0 0 1 395 59.5)" fill="#878787" font-family="'MyriadPro-Regular'" font-size="16">1</text>
	<text transform="matrix(1 0 0 1 413 93.5)" fill="#878787" font-family="'MyriadPro-Regular'" font-size="16">2</text>
	<text transform="matrix(1 0 0 1 456.5 110.5)" fill="#878787" font-family="'MyriadPro-Regular'" font-size="16">3</text>
	<text transform="matrix(1 0 0 1 492.5 99)" fill="#878787" font-family="'MyriadPro-Regular'" font-size="16">4</text>
	<text transform="matrix(1 0 0 1 542 156)" fill="#878787" font-family="'MyriadPro-Regular'" font-size="16">5</text>
	<text transform="matrix(1 0 0 1 562.5 202.5)" fill="#878787" font-family="'MyriadPro-Regular'" font-size="16">6</text>
	<text transform="matrix(1 0 0 1 588 270)" fill="#878787" font-family="'MyriadPro-Regular'" font-size="16">7</text>
	<text transform="matrix(1 0 0 1 560 315)" fill="#878787" font-family="'MyriadPro-Regular'" font-size="16">8</text>
	<text transform="matrix(1 0 0 1 544 357)" fill="#878787" font-family="'MyriadPro-Regular'" font-size="16">9</text>
	<text transform="matrix(1 0 0 1 524 412)" fill="#878787" font-family="'MyriadPro-Regular'" font-size="16">10</text>
	<text transform="matrix(1 0 0 1 480.5 431.5)" fill="#878787" font-family="'MyriadPro-Regular'" font-size="16">11</text>
	<text transform="matrix(1 0 0 1 408 464)" fill="#878787" font-family="'MyriadPro-Regular'" font-size="16">12</text>
	<text transform="matrix(1 0 0 1 359 414.5)" fill="#878787" font-family="'MyriadPro-Regular'" font-size="16">13</text>
	<text transform="matrix(1 0 0 1 242.5 373.5)" fill="#878787" font-family="'MyriadPro-Regular'" font-size="16">14</text>
	<text transform="matrix(1 0 0 1 178.5 339)" fill="#878787" font-family="'MyriadPro-Regular'" font-size="16">15</text>
	<text transform="matrix(1 0 0 1 195.5 282)" fill="#878787" font-family="'MyriadPro-Regular'" font-size="16">16</text>
	<text transform="matrix(1 0 0 1 158 219.5)" fill="#878787" font-family="'MyriadPro-Regular'" font-size="16">17</text>
	<text transform="matrix(1 0 0 1 169 167.5)" fill="#878787" font-family="'MyriadPro-Regular'" font-size="16">18</text>
	<text transform="matrix(1 0 0 1 216 198.5)" fill="#878787" font-family="'MyriadPro-Regular'" font-size="16">19</text>
	<text transform="matrix(1 0 0 1 268.5 136)" fill="#878787" font-family="'MyriadPro-Regular'" font-size="16">20</text>
	<text transform="matrix(1 0 0 1 317 95)" fill="#878787" font-family="'MyriadPro-Regular'" font-size="16">21</text>
	<text transform="matrix(1 0 0 1 370 89.5)" fill="#878787" font-family="'MyriadPro-Regular'" font-size="16">22</text>
	<text transform="matrix(1 0 0 1 379 144.5)" fill="#878787" font-family="'MyriadPro-Regular'" font-size="16">23</text>
	<text transform="matrix(1 0 0 1 492 154.5)" fill="#878787" font-family="'MyriadPro-Regular'" font-size="16">24</text>
	<text transform="matrix(1 0 0 1 506.5 212.5)" fill="#878787" font-family="'MyriadPro-Regular'" font-size="16">25</text>
	<text transform="matrix(1 0 0 1 544.5 266.5)" fill="#878787" font-family="'MyriadPro-Regular'" font-size="16">26</text>
	<text transform="matrix(1 0 0 1 499.5 316)" fill="#878787" font-family="'MyriadPro-Regular'" font-size="16">27</text>
	<text transform="matrix(1 0 0 1 436 396)" fill="#878787" font-family="'MyriadPro-Regular'" font-size="16">28</text>
	<text transform="matrix(1 0 0 1 388 348)" fill="#878787" font-family="'MyriadPro-Regular'" font-size="16">29</text>
	<text transform="matrix(1 0 0 1 321.5 396.5)" fill="#878787" font-family="'MyriadPro-Regular'" font-size="16">30</text>
	<text transform="matrix(1 0 0 1 281.5 329.5)" fill="#878787" font-family="'MyriadPro-Regular'" font-size="16">31</text>
	<text transform="matrix(1 0 0 1 260 272.5)" fill="#878787" font-family="'MyriadPro-Regular'" font-size="16">32</text>
	<text transform="matrix(1 0 0 1 253 226.5)" fill="#878787" font-family="'MyriadPro-Regular'" font-size="16">33</text>
	<text transform="matrix(1 0 0 1 466.5 203)" fill="#878787" font-family="'MyriadPro-Regular'" font-size="16">34</text>
	<text transform="matrix(1 0 0 1 453 298.5)" fill="#878787" font-family="'MyriadPro-Regular'" font-size="16">35</text>
	<text transform="matrix(1 0 0 1 445.5 337.5)" fill="#878787" font-family="'MyriadPro-Regular'" font-size="16">36</text>
	<text transform="matrix(1 0 0 1 325 309)" fill="#878787" font-family="'MyriadPro-Regular'" font-size="16">37</text>
	<text transform="matrix(1 0 0 1 313.5 260.5)" fill="#878787" font-family="'MyriadPro-Regular'" font-size="16">38</text>
	<text transform="matrix(1 0 0 1 347 225.5)" fill="#878787" font-family="'MyriadPro-Regular'" font-size="16">39</text>
	<text transform="matrix(1 0 0 1 312.5 135)" fill="#878787" font-family="'MyriadPro-Regular'" font-size="16">40</text>
	<text transform="matrix(1 0 0 1 381 198)" fill="#878787" font-family="'MyriadPro-Regular'" font-size="16">41</text>
	<text transform="matrix(1 0 0 1 427 263)" fill="#878787" font-family="'MyriadPro-Regular'" font-size="16">42</text>
</g>
<g id="Gamburtsev_Mountain_Range">
	<path fill-rule="evenodd" clip-rule="evenodd" fill="#F1F1F2" stroke="#231F20" stroke-width="0.1589" stroke-miterlimit="10" d="
		M433.069,140.16c-3.252,1.112-15.398,3.764-16.064,5.327c-0.666,1.564,24.413,14.925,27.29,14.551
		c2.877-0.373,29.562-12.922,29.551-15.136c-0.012-2.214-12.107-5.209-18.193-6.994L433.069,140.16z"/>
	<linearGradient id="SVGID_1_" gradientUnits="userSpaceOnUse" x1="443.3145" y1="146.8789" x2="443.2313" y2="135.6354">
		<stop  offset="0" style="stop-color:#808184"/>
		<stop  offset="0.152" style="stop-color:#9A9B9E"/>
		<stop  offset="0.4032" style="stop-color:#C0C0C2"/>
		<stop  offset="0.6363" style="stop-color:#DBDBDC"/>
		<stop  offset="0.8425" style="stop-color:#EBEBEC"/>
		<stop  offset="1" style="stop-color:#F1F1F2"/>
	</linearGradient>
	
		<path fill-rule="evenodd" clip-rule="evenodd" fill="url(#SVGID_1_)" stroke="#231F20" stroke-width="0.1589" stroke-miterlimit="10" d="
		M457.19,144.618c-0.067-0.34-0.132-0.681-0.197-1.021c-0.74-1.828-1.16-3.73-1.341-5.688c-0.375-1.16-2.667-3.263-3.665-3.137
		c-1.021,0.13-1.325-0.298-1.472-1.15c-0.143-0.835-0.371-1.655-0.51-2.49c-0.353-2.079-1.432-2.965-3.491-2.893
		c-0.597,0.021-1.454,0.302-1.657-0.503c-0.256-1.007-0.7-1.375-1.75-1.383c-1.186-0.01-1.797,0.599-2.084,1.569
		c-0.311,1.048-0.957,1.163-1.82,0.876c-0.905-0.301-1.686,0.108-2.129,1.111c0.2,0.248-1.537-1.018-2.213,1.37
		c-0.402,1.422-0.869,2.835-1.357,4.236c-0.15,0.434-0.218,1.112-0.707,1.171c-1.348,0.162-1.36,1.291-1.755,2.155
		c-0.344,0.755-0.388,1.667-1.153,2.202c0.338,0.385-0.494,1.675-0.494,1.675C425.699,154.556,460.982,147.931,457.19,144.618z"/>
	<path fill-rule="evenodd" clip-rule="evenodd" fill="#6D6E70" stroke="#231F20" stroke-width="0.1589" stroke-miterlimit="10" d="
		M429.395,142.719c-0.201,1.354,0.482,3.748,2.397,3.35c0.897-0.188,1.496,1.465,1.973,1.079c0.487-0.395,1.222-0.722,1.806-0.494
		c1.527,0.593,0.527,1.932,2.346,1.788c1.354-0.105,1.68-1.844,2.79-1.682c2.116,0.308,1.785,1.488,3.653,0.33
		c0.43-0.268,0.615-0.152,0.918,0.161c1.484,1.535,2.79-1.344,3.197-1.324c0.572,0.026,1.609,1.586,2.023,1.472
		c1.118-0.309,1.428-1.125,2.281-1.284c0.818-0.152,1.723,0.693,2.555,0.357c0.674-0.271,1.468-0.378,1.311-1.429
		c-0.049-0.324,0.26-0.412,0.546-0.425c0.288,0.443,0.675,0.852,0.845,1.335c0.315,0.896,0.24,1.535-0.959,1.87
		c-3.807,1.059-7.604,1.943-11.605,1.551c-1.797-0.177-3.564,0.425-5.347,0.495c-3.013,0.117-5.994-0.183-8.749-1.595
		c-0.141-0.073-0.277-0.155-0.419-0.228c-2.976-1.521-3.243-2.264-1.833-5.093C429.213,142.875,429.305,142.797,429.395,142.719z"/>
</g>
<g id="Vostok_lake">
	<path fill-rule="evenodd" clip-rule="evenodd" fill="#F1F1F2" stroke="#231F20" stroke-width="0.0949" stroke-miterlimit="10" d="
		M535.373,239.417c-3.299-1.874-19.578-9.339-23.227-9.393c-3.648-0.052-18.825,5.524-21.891,6.452
		c-10.413,3.152,3.688,8.684,7.752,11.119c11.435,6.853,16.425,4.56,18.105,3.648c4.869-2.639,9.778-5.198,14.678-7.779
		c1.527-0.806,3.074-1.575,4.601-2.381C536.795,240.343,536.814,240.237,535.373,239.417z"/>
	<path fill-rule="evenodd" clip-rule="evenodd" fill="#89CBF0" stroke="#231F20" stroke-width="0.0949" stroke-miterlimit="10" d="
		M496.498,243.108c0.033-0.25-0.212-1.466-0.412-1.769c-0.246-0.374-0.397-0.783-0.368-1.242c0.088-0.273,0.091-0.579,0.313-0.798
		c0.063-0.046,2.21-2.667,3.682-3.415c3.253-1.652,6.768-2.26,10.365-2.433c2.32-0.111,4.63,0.135,6.895,0.636
		c3.127,0.693,8.635,4.246,8.732,4.098c0.939,1.453,0.734,2.947,0.163,4.456c-1.058,0.1-1.398,0.927-1.762,1.73
		c-0.557,1.289-2.028,1.21-3.116,1.8c-0.598,0.323-1.083,0.933-1.7,1.228c-1.03,0.49-2.047,0.239-3.692,0.278
		c-1.646,0.04-2.253,1.001-2.896,0.993c-0.554-0.009-1.616-0.275-2.167-0.232c-0.514,0.039-2.712,0.202-2.948-0.225
		c-0.416-0.753-3.603-0.39-4.229-0.529C502.031,247.394,496.442,245.102,496.498,243.108z M520.437,241.725
		c-0.315-0.332-0.706-0.163-1.073-0.159c-0.116,0.012-0.231,0.024-0.348,0.036c-0.717-0.196-1.279,0.005-1.846,0.509
		c-0.516,0.46-0.275,0.634,0.145,0.818c0.761,0.333,1.547,0.453,2.363,0.204c0.378,0.269,0.61-0.172,0.934-0.19
		c0.308-0.016,0.703,0.005,0.758-0.384c0.053-0.366-0.336-0.483-0.594-0.647C520.667,241.842,520.551,241.786,520.437,241.725z
		 M506.186,237.744c0.274,0.205,0.555,0.185,0.713-0.107c0.171-0.316-0.098-0.382-0.341-0.417c-1.767-1.31-2.362-1.381-3.849-0.457
		c-0.173,0.107-0.455,0.146-0.439,0.396c0.018,0.309,0.349,0.283,0.551,0.347C503.92,237.855,505.063,237.687,506.186,237.744z
		 M519.574,237.876c0.368,0,0.579,0.007,0.79-0.001c0.203-0.008,0.446,0.049,0.535-0.22c0.083-0.25-0.115-0.383-0.258-0.533
		c-0.992-1.042-1.784-1.116-2.809-0.286c-0.402,0.328-0.46,0.57,0.112,0.745C518.528,237.759,519.115,237.904,519.574,237.876z
		 M500.275,243.424c0.235,0,0.474,0.021,0.706-0.005c0.395-0.045,0.47-0.258,0.286-0.602c-0.621-1.162-2.284-1.332-3.119-0.322
		c-0.281,0.341-0.164,0.52,0.204,0.605C498.986,243.246,499.605,243.487,500.275,243.424z M511.315,246.904
		c0.001,0.011,0.001,0.021,0.001,0.033c0.289-0.015,0.59,0.015,0.862-0.057c0.366-0.098,0.484-0.397,0.16-0.633
		c-0.478-0.349-0.978-0.721-1.648-0.604c-0.451,0.077-0.887,0.353-0.927,0.718c-0.042,0.386,0.498,0.455,0.845,0.533
		C510.833,246.946,511.08,246.904,511.315,246.904z"/>
	<path fill-rule="evenodd" clip-rule="evenodd" fill="#60ADCE" stroke="#231F20" stroke-width="0.0949" stroke-miterlimit="10" d="
		M525.705,238.187c-0.098,0.147-5.605-3.405-8.732-4.098c-2.265-0.501-4.574-0.748-6.895-0.636
		c-3.598,0.173-7.112,0.78-10.365,2.433c-1.472,0.749-3.618,3.369-3.682,3.415c0.225-1.378,1.15-2.293,2.157-3.106
		c2.431-1.967,5.323-2.875,8.346-3.342c4.765-0.734,9.465-0.466,13.984,1.375C522.594,235.071,524.51,236.168,525.705,238.187z"/>
	<path fill-rule="evenodd" clip-rule="evenodd" fill="#F1F1F2" stroke="#231F20" stroke-width="0.0949" stroke-miterlimit="10" d="
		M519.574,237.876c-0.459,0.027-1.046-0.117-1.629-0.295c-0.572-0.175-0.515-0.417-0.112-0.745c1.024-0.831,1.816-0.756,2.809,0.286
		c0.143,0.15,0.341,0.283,0.258,0.533c-0.089,0.269-0.332,0.211-0.535,0.22C520.153,237.883,519.942,237.876,519.574,237.876z"/>
	<path fill-rule="evenodd" clip-rule="evenodd" fill="#F1F1F2" stroke="#231F20" stroke-width="0.0949" stroke-miterlimit="10" d="
		M500.275,243.423c-0.67,0.064-1.289-0.177-1.923-0.323c-0.368-0.085-0.485-0.264-0.204-0.605c0.835-1.009,2.498-0.84,3.119,0.322
		c0.184,0.344,0.108,0.557-0.286,0.602C500.749,243.445,500.511,243.424,500.275,243.423z"/>
	<path fill-rule="evenodd" clip-rule="evenodd" fill="#F1F1F2" stroke="#231F20" stroke-width="0.0949" stroke-miterlimit="10" d="
		M511.315,246.904c-0.235,0-0.482,0.042-0.707-0.01c-0.347-0.078-0.887-0.146-0.845-0.533c0.04-0.365,0.476-0.641,0.927-0.718
		c0.671-0.118,1.171,0.254,1.648,0.604c0.324,0.236,0.206,0.535-0.16,0.633c-0.272,0.072-0.573,0.042-0.862,0.057
		C511.316,246.926,511.316,246.915,511.315,246.904z"/>
	<path fill-rule="evenodd" clip-rule="evenodd" fill="#F1F1F2" stroke="#231F20" stroke-width="0.0949" stroke-miterlimit="10" d="
		M520.775,241.911c-0.108-0.069-0.225-0.125-0.339-0.187c-0.315-0.332-0.706-0.163-1.074-0.159c-0.115,0.012-0.23,0.024-0.347,0.035
		c-0.717-0.195-1.279,0.006-1.846,0.51c-0.516,0.46-0.275,0.634,0.145,0.818c0.761,0.333,1.547,0.453,2.363,0.204
		c0.378,0.269,0.61-0.172,0.934-0.19c0.308-0.016,0.703,0.005,0.758-0.384C521.422,242.192,521.033,242.075,520.775,241.911z"/>
	<path fill-rule="evenodd" clip-rule="evenodd" fill="#F1F1F2" stroke="#231F20" stroke-width="0.0949" stroke-miterlimit="10" d="
		M506.557,237.221c-1.766-1.311-2.361-1.382-3.848-0.458c-0.173,0.107-0.455,0.146-0.439,0.396c0.018,0.309,0.349,0.283,0.551,0.347
		c1.1,0.349,2.242,0.18,3.365,0.237c0.274,0.205,0.555,0.185,0.713-0.107C507.069,237.32,506.801,237.254,506.557,237.221z"/>
</g>
<g id="don_juan_pound">
	<path fill-rule="evenodd" clip-rule="evenodd" fill="#F1F1F2" stroke="#231F20" stroke-width="0.1371" stroke-miterlimit="10" d="
		M544.796,381.354c-4.767-2.708-28.292-13.497-33.564-13.573s-27.207,7.982-31.637,9.323c-15.049,4.554,5.33,12.549,11.204,16.068
		c16.524,9.902,23.734,6.591,26.165,5.272c7.034-3.813,14.132-7.512,21.211-11.243c2.207-1.165,4.442-2.275,6.649-3.441
		C546.851,382.689,546.881,382.537,544.796,381.354z"/>
	<path fill-rule="evenodd" clip-rule="evenodd" fill="#89CBF0" stroke="#231F20" stroke-width="0.1371" stroke-miterlimit="10" d="
		M488.617,386.688c0.045-0.362-0.307-2.117-0.597-2.557c-0.355-0.54-0.575-1.131-0.532-1.794c0.127-0.395,0.131-0.837,0.454-1.153
		c0.091-0.066,3.192-3.854,5.319-4.935c4.701-2.389,9.781-3.267,14.98-3.516c3.352-0.161,6.691,0.194,9.964,0.92
		c4.519,1.001,12.479,6.135,12.619,5.922c1.357,2.1,1.063,4.26,0.235,6.438c-1.526,0.146-2.021,1.341-2.547,2.502
		c-0.804,1.862-2.931,1.749-4.502,2.601c-0.863,0.467-1.567,1.349-2.458,1.773c-1.487,0.709-2.958,0.347-5.337,0.404
		c-2.378,0.057-3.255,1.447-4.183,1.433c-0.801-0.013-2.337-0.395-3.134-0.334c-0.741,0.056-3.919,0.291-4.26-0.325
		c-0.602-1.089-5.205-0.563-6.113-0.765C496.613,392.881,488.535,389.568,488.617,386.688z M523.213,384.688
		c-0.459-0.479-1.023-0.236-1.553-0.23c-0.168,0.018-0.335,0.035-0.503,0.053c-1.036-0.283-1.848,0.008-2.666,0.734
		c-0.747,0.665-0.397,0.917,0.209,1.182c1.098,0.48,2.235,0.655,3.413,0.296c0.547,0.39,0.885-0.249,1.35-0.273
		c0.446-0.024,1.019,0.007,1.098-0.557c0.074-0.528-0.485-0.698-0.859-0.936C523.544,384.857,523.376,384.777,523.213,384.688z
		 M502.614,378.935c0.398,0.297,0.804,0.267,1.031-0.156c0.249-0.457-0.14-0.552-0.494-0.601c-2.549-1.893-3.41-1.995-5.561-0.659
		c-0.249,0.155-0.656,0.211-0.634,0.573c0.027,0.445,0.503,0.408,0.796,0.5C499.342,379.096,500.991,378.853,502.614,378.935z
		 M521.965,379.127c0.531,0,0.837,0.01,1.143-0.002c0.292-0.013,0.645,0.07,0.772-0.317c0.119-0.361-0.166-0.555-0.373-0.771
		c-1.435-1.504-2.577-1.613-4.058-0.413c-0.583,0.474-0.665,0.823,0.162,1.076C520.453,378.957,521.301,379.166,521.965,379.127z
		 M494.074,387.144c0.341,0,0.686,0.03,1.021-0.008c0.571-0.064,0.681-0.372,0.415-0.869c-0.896-1.68-3.303-1.924-4.508-0.466
		c-0.407,0.492-0.238,0.752,0.294,0.874C492.213,386.887,493.107,387.235,494.074,387.144z M510.031,392.173
		c0,0.017,0,0.032,0,0.048c0.417-0.022,0.852,0.022,1.247-0.082c0.528-0.141,0.7-0.574,0.232-0.914
		c-0.694-0.506-1.415-1.041-2.385-0.874c-0.65,0.114-1.282,0.513-1.339,1.039c-0.061,0.559,0.721,0.658,1.22,0.77
		C509.334,392.233,509.688,392.173,510.031,392.173z"/>
	<path fill-rule="evenodd" clip-rule="evenodd" fill="#60ADCE" stroke="#231F20" stroke-width="0.1371" stroke-miterlimit="10" d="
		M530.825,379.575c-0.141,0.213-8.101-4.921-12.619-5.922c-3.272-0.726-6.612-1.081-9.964-0.92
		c-5.199,0.249-10.279,1.127-14.98,3.516c-2.127,1.081-5.229,4.868-5.319,4.935c0.324-1.991,1.661-3.314,3.116-4.49
		c3.514-2.841,7.695-4.154,12.063-4.828c6.886-1.063,13.679-0.674,20.209,1.985C526.33,375.073,529.099,376.658,530.825,379.575z"/>
	<path fill-rule="evenodd" clip-rule="evenodd" fill="#F1F1F2" stroke="#231F20" stroke-width="0.1371" stroke-miterlimit="10" d="
		M521.965,379.127c-0.664,0.039-1.512-0.17-2.354-0.427c-0.827-0.253-0.745-0.603-0.162-1.076c1.48-1.2,2.623-1.091,4.058,0.413
		c0.207,0.216,0.492,0.409,0.373,0.771c-0.128,0.388-0.48,0.305-0.772,0.317C522.802,379.137,522.496,379.127,521.965,379.127z"/>
	<path fill-rule="evenodd" clip-rule="evenodd" fill="#F1F1F2" stroke="#231F20" stroke-width="0.1371" stroke-miterlimit="10" d="
		M494.076,387.142c-0.969,0.094-1.863-0.255-2.78-0.467c-0.532-0.122-0.701-0.382-0.294-0.874c1.205-1.458,3.611-1.214,4.508,0.466
		c0.266,0.497,0.156,0.805-0.415,0.869C494.76,387.174,494.415,387.144,494.076,387.142z"/>
	<path fill-rule="evenodd" clip-rule="evenodd" fill="#F1F1F2" stroke="#231F20" stroke-width="0.1371" stroke-miterlimit="10" d="
		M510.031,392.173c-0.343,0-0.697,0.061-1.024-0.014c-0.499-0.111-1.28-0.211-1.22-0.77c0.057-0.526,0.688-0.925,1.339-1.039
		c0.97-0.167,1.69,0.368,2.385,0.874c0.468,0.34,0.296,0.773-0.232,0.914c-0.396,0.104-0.83,0.06-1.247,0.082
		C510.031,392.205,510.031,392.189,510.031,392.173z"/>
	<path fill-rule="evenodd" clip-rule="evenodd" fill="#F1F1F2" stroke="#231F20" stroke-width="0.1371" stroke-miterlimit="10" d="
		M523.701,384.957c-0.157-0.1-0.325-0.18-0.488-0.269c-0.459-0.479-1.023-0.236-1.553-0.23c-0.168,0.018-0.335,0.035-0.503,0.052
		c-1.036-0.282-1.848,0.009-2.666,0.735c-0.747,0.665-0.397,0.917,0.209,1.182c1.098,0.48,2.235,0.655,3.413,0.296
		c0.547,0.39,0.885-0.249,1.35-0.273c0.446-0.024,1.019,0.007,1.098-0.557C524.635,385.364,524.075,385.194,523.701,384.957z"/>
	<path fill-rule="evenodd" clip-rule="evenodd" fill="#F1F1F2" stroke="#231F20" stroke-width="0.1371" stroke-miterlimit="10" d="
		M503.15,378.178c-2.548-1.893-3.409-1.995-5.56-0.659c-0.249,0.155-0.656,0.211-0.634,0.573c0.027,0.445,0.503,0.408,0.796,0.5
		c1.589,0.504,3.238,0.261,4.861,0.343c0.398,0.297,0.804,0.267,1.031-0.156C503.895,378.321,503.506,378.227,503.15,378.178z"/>
</g>
<g id="Sand_dunes">
	<path fill-rule="evenodd" clip-rule="evenodd" fill="#F1F1F2" stroke="#231F20" stroke-width="0.1245" stroke-miterlimit="10" d="
		M335.333,152.344c-0.258,0.28-33.375,2.571-33.956,6.886c-0.581,4.316,18.964,10.5,25.645,10.873
		c6.681,0.374,29.629-6.183,28.923-11.495C355.24,153.297,336.322,152.568,335.333,152.344z"/>
	<path fill-rule="evenodd" clip-rule="evenodd" fill="#FCBA35" stroke="#231F20" stroke-width="0.1245" stroke-miterlimit="10" d="
		M334.239,153.259c-0.216,0.235-27.903,2.149-28.389,5.758c-0.485,3.608,15.855,8.778,21.441,9.09s24.771-5.169,24.182-9.61
		S335.066,153.446,334.239,153.259z"/>
	<path fill-rule="evenodd" clip-rule="evenodd" fill="#FCC75C" d="M334.239,153.259c-0.216,0.235-0.506,0.358-0.774,0.512
		c-0.284,0.163-0.578,0.309-0.872,0.452c-0.501,0.245-1.006,0.483-1.517,0.709c-0.313,0.139-0.637,0.261-0.948,0.408
		c-0.366,0.172-0.764,0.275-1.15,0.403c-0.508,0.167-1.015,0.345-1.529,0.49c-0.654,0.184-1.294,0.409-1.951,0.584
		c-0.716,0.19-1.412,0.458-2.128,0.644c-0.583,0.151-1.155,0.336-1.737,0.491c-0.521,0.139-1.04,0.288-1.562,0.428
		c-0.474,0.126-0.954,0.229-1.421,0.374c-0.461,0.144-0.939,0.221-1.396,0.373c-0.486,0.162-0.991,0.234-1.487,0.345
		c-0.496,0.11-0.984,0.256-1.481,0.355c-1.004,0.201-2.009,0.396-3.02,0.559c-0.297,0.048-0.609,0.044-0.914,0.059
		c-0.068,0.003-0.145,0.018-0.193-0.055c1.441-0.662,2.731-1.549,3.941-2.568c0.91-0.767,1.776-1.579,2.639-2.395
		c1.339-1.265,2.688-2.516,4.23-3.535c1.418-0.938,2.945-1.626,4.638-1.893c1.481-0.232,2.914-0.063,4.27,0.599
		c0.771,0.376,1.489,0.845,2.198,1.329C332.774,152.403,333.476,152.882,334.239,153.259z"/>
	<path fill-rule="evenodd" clip-rule="evenodd" fill="#FCC75C" d="M318.896,163.531c-0.074,0.013-0.157,0.033-0.222-0.036
		c0.621-0.2,1.237-0.415,1.837-0.673c1.276-0.549,2.477-1.234,3.613-2.031c1.315-0.922,2.506-2,3.747-3.015
		c0.671-0.549,1.39-1.033,2.174-1.408c1.266-0.605,2.622-0.796,4.009-0.818c0.787-0.012,1.571,0.064,2.357,0.095
		c0.087,0.071,0.192,0.03,0.289,0.046c0.246,0.03,4.504,0.026,5.099-0.016c-0.033,0.151-0.17,0.218-0.27,0.305
		c-0.942,0.812-1.939,1.553-2.972,2.245C337.95,158.631,319.627,163.404,318.896,163.531z"/>
	<path fill-rule="evenodd" clip-rule="evenodd" fill="#FCC75C" d="M348.043,158.038c0.142-0.001,0.285,0.007,0.425-0.007
		c0.261-0.027,0.387,0.123,0.479,0.333c0.395,0.904-18.282,7.478-19.191,7.553c-0.632,0.052-1.259,0.173-1.896,0.157
		c-0.082-0.002-0.176,0.035-0.241-0.052c0.046-0.011,0.091-0.027,0.137-0.033c1.327-0.171,2.525-0.696,3.669-1.356
		c1.461-0.843,2.778-1.896,4.133-2.892c0.819-0.602,1.665-1.16,2.565-1.632c1.446-0.757,2.995-1.199,4.595-1.471
		c1.394-0.237,2.8-0.377,4.21-0.478C347.301,158.135,347.683,158.171,348.043,158.038z"/>
	<path fill-rule="evenodd" clip-rule="evenodd" fill="#E4A72E" d="M337.919,159.301c0.834-0.239,1.679-0.439,2.521-0.646
		c0.583-0.144,1.173-0.255,1.764-0.367c0.859-0.162,1.72-0.28,2.592-0.351c0.938-0.076,1.872-0.073,2.806,0.053
		c0.065,0.009,0.128,0.005,0.142,0.089c-0.432,0.019-0.863,0.033-1.295,0.057c-0.517,0.028-1.035,0.051-1.55,0.099
		c-1.037,0.098-2.068,0.244-3.087,0.464c-1.681,0.363-3.263,0.973-4.724,1.887c-1.038,0.65-2.013,1.39-2.986,2.132
		c-0.853,0.65-1.737,1.255-2.64,1.831c-0.428,0.273-0.898,0.486-1.361,0.699c-0.701,0.323-1.435,0.547-2.192,0.704
		c-0.213,0.044-0.458-0.007-0.638,0.167c-0.289,0-0.578,0-0.892,0c0.186-0.32,0.415-0.585,0.634-0.855
		c0.475-0.584,0.989-1.134,1.547-1.637C328.917,163.306,333.583,160.422,337.919,159.301z"/>
	<path fill-rule="evenodd" clip-rule="evenodd" fill="#E4A72E" d="M318.802,162.294c0.391-0.494,0.823-0.952,1.285-1.379
		c0.668-0.617,1.379-1.177,2.152-1.663c0.629-0.396,1.273-0.761,1.933-1.099c0.572-0.293,1.145-0.587,1.741-0.833
		c0.642-0.266,1.278-0.547,1.938-0.765c0.919-0.303,1.84-0.598,2.803-0.739c0.208-0.031,0.414-0.081,0.621-0.122
		c0.077-0.015,0.155-0.043,0.219,0.03c-0.486,0.149-0.974,0.293-1.434,0.511c-0.987,0.466-1.866,1.098-2.694,1.801
		c-0.831,0.706-1.654,1.421-2.471,2.143c-1.091,0.964-2.317,1.719-3.61,2.371c-0.913,0.46-2.23,1.055-3.44,1.211
		C317.784,163.783,318.394,162.811,318.802,162.294z"/>
	<path fill-rule="evenodd" clip-rule="evenodd" fill="#E4A72E" d="M312.194,157.058c0.164-0.059,0.346-0.092,0.418-0.285
		c0.023-0.015,0.047-0.03,0.071-0.045c0.047-0.004,0.079-0.023,0.076-0.077c0.032-0.042,0.064-0.084,0.096-0.127l-0.004,0.008
		c0.015-0.018,0.03-0.035,0.045-0.053l-0.001,0.003c0.016-0.017,0.032-0.033,0.048-0.05l-0.001,0.002
		c0.016-0.017,0.033-0.035,0.049-0.051l0,0.002c0.6-0.648,1.278-1.21,1.968-1.758c1.79-1.42,3.742-2.571,5.839-3.473
		c1.048-0.451,2.64-0.63,3.762-0.86c0.131-0.027-8.956,6.089-9.903,6.94c-0.971,0.873-1.981,1.691-3.113,2.35
		c-0.476,0.277-0.962,0.533-1.473,0.741c0.006-0.077-0.01-0.151,0.035-0.228c0.384-0.651,0.813-1.274,1.262-1.881
		c0.247-0.333,0.492-0.672,0.82-0.938C312.203,157.267,312.384,157.135,312.194,157.058z"/>
	
		<path fill-rule="evenodd" clip-rule="evenodd" fill="none" stroke="#916D18" stroke-width="0.249" stroke-linecap="round" stroke-linejoin="round" stroke-miterlimit="10" d="
		M348.758,158.063c0,0-5.609-0.163-10.174,1.744c-4.423,1.847-6.384,6.028-12.247,6.297"/>
	
		<path fill-rule="evenodd" clip-rule="evenodd" fill="none" stroke="#916D18" stroke-width="0.249" stroke-linecap="round" stroke-linejoin="round" stroke-miterlimit="10" d="
		M341.85,155.753c0,0-6.762-0.687-10.526,0.085s-7.572,7.446-13.504,7.845"/>
	
		<path fill-rule="evenodd" clip-rule="evenodd" fill="none" stroke="#916D18" stroke-width="0.249" stroke-linecap="round" stroke-linejoin="round" stroke-miterlimit="10" d="
		M334.239,153.259c-2.299-1.372-6.3-4.675-9.993-2.703c-4.41,2.355-12.967,9.433-14.207,9.745"/>
</g>
<g id="Blood_falls">
	<path fill-rule="evenodd" clip-rule="evenodd" fill="none" stroke="#231F20" stroke-width="0.2608" stroke-miterlimit="10" d="
		M243.555,310.517L243.555,310.517c-0.857-0.539-2.215-0.305-2.655-1.436c-0.669-1.72-2.271-2.448-3.48-3.595
		c-0.093-0.584-0.49-1.017-0.851-1.407c-0.726-0.79-1.172-2.136-2.713-1.597c-0.119,0.043-0.348-0.185-0.509-0.308
		c-0.635-0.479-1.276-0.953-1.889-1.461c-0.573-0.474-1.018-0.518-1.618,0.056c-0.433,0.415-0.738,0.641-1.006,0.681
		c-0.033-0.006-0.063-0.01-0.089-0.009c-0.078,0.002-0.146-0.007-0.214-0.028c-0.251-0.104-0.499-0.392-0.834-0.865
		c-0.161-0.229-0.306-0.468-0.479-0.685c-0.567-0.708-1.154-1.217-2.116-0.529c-0.373,0.265-0.965,0.522-1.352,0.07
		c-0.852-0.996-1.602-0.438-2.363,0.06c-0.583,0.38-1.212,0.735-1.686,1.229c-0.775,0.811-2.055,1.198-2.244,2.509
		c-0.125,0.868-0.527,1.383-1.435,1.521c-0.641,0.096-1.251,0.328-1.113,1.197c-0.107,0.318-0.441,1.253-0.694,1.867
		c-0.39,0.946-0.79,2.038-1.774,2.376c-1.083,0.371-1.912,0.976-2.7,1.729c-0.104-0.001-0.217-0.03-0.311,0.001
		c-3.705,1.249-7.405,2.514-11.114,3.748c-0.674,0.225-0.935,0.772-0.607,1.228c2.176,3.031,24.123,12.707,28.956,12.844
		c4.833,0.137,26.84-12.78,27.728-14.555C255.281,313.384,246.689,311.54,243.555,310.517z"/>
	<path fill-rule="evenodd" clip-rule="evenodd" fill="#85B2E8" d="M197.71,316.868c-0.327-0.455-0.066-1.003,0.607-1.228
		c3.709-1.234,7.41-2.499,11.114-3.748c0.094-0.031,0.207-0.002,0.311-0.001c-0.301,2.029-1.663,3.019-3.493,3.518
		c-0.354,0.096-0.7,0.113-0.717,0.585c-0.02,0.544,0.383,0.52,0.759,0.646c1.683,0.565,3.457,0.895,5.082,1.555
		c1.834,0.744,3.493,0.932,5.228-0.056c0.175,0.027,4.642,0.03,5.782,0.025v0.055l-0.007-0.056c1.885-0.145,3.708-0.656,5.565-0.96
		c1.729,0.202,3.361,0.886,5.076,1.095c4.058,0.493,8.071,0.352,11.902-1.317c0.285-0.124,0.592-0.227,0.897-0.273
		c0.818-0.125,1.036-0.545,0.556-1.202c-1.025-1.403-2.022-2.834-3.129-4.171c-0.526-0.638-0.028-0.639,0.31-0.819
		c3.134,1.023,11.729,2.868,10.841,4.642c-0.888,1.774-22.896,14.691-27.728,14.555C221.833,329.575,199.886,319.899,197.71,316.868
		z"/>
	<polygon fill-rule="evenodd" clip-rule="evenodd" fill="#6A8084" points="222.382,318.165 222.375,318.164 222.382,318.22 	"/>
	<path fill-rule="evenodd" clip-rule="evenodd" fill="none" stroke="#231F20" stroke-width="0.2608" stroke-miterlimit="10" d="
		M246.372,315.506c-1.025-1.403-2.022-2.834-3.129-4.171c-0.526-0.638-0.028-0.639,0.312-0.818
		c-0.858-0.539-2.215-0.305-2.655-1.436c-0.669-1.72-2.271-2.448-3.48-3.595c-0.093-0.584-0.49-1.017-0.851-1.407
		c-0.726-0.79-1.172-2.136-2.713-1.597c-0.119,0.043-0.348-0.185-0.509-0.308c-0.635-0.479-1.276-0.953-1.889-1.461
		c-0.573-0.474-1.018-0.518-1.618,0.056c-0.433,0.415-0.738,0.641-1.006,0.681c-0.033-0.006-0.063-0.01-0.089-0.009
		c-0.078,0.002-0.146-0.007-0.214-0.028c-0.251-0.104-0.499-0.392-0.834-0.865c-0.161-0.229-0.306-0.468-0.479-0.685
		c-0.567-0.708-1.154-1.217-2.116-0.529c-0.373,0.265-0.965,0.522-1.352,0.07c-0.852-0.996-1.602-0.438-2.363,0.06
		c-0.583,0.38-1.212,0.735-1.686,1.229c-0.775,0.811-2.055,1.198-2.244,2.509c-0.125,0.868-0.527,1.383-1.435,1.521
		c-0.641,0.096-1.251,0.328-1.113,1.197c0.414,0.091-0.441,1.253-0.694,1.867c-0.39,0.946-0.79,2.038-1.774,2.376
		c-1.083,0.371-1.912,0.976-2.7,1.729c-0.301,2.029-1.663,3.019-3.493,3.518c-0.354,0.096-0.7,0.113-0.717,0.585
		c-0.02,0.544,0.383,0.52,0.759,0.646c1.683,0.565,3.457,0.895,5.082,1.555c1.834,0.744,3.492,0.932,5.228-0.056
		c-0.017,0.014-0.034,0.028-0.051,0.04c0.175,0.028,4.693-0.01,5.833-0.015l-0.007-0.001c1.885-0.145,3.708-0.656,5.565-0.96h0
		c1.729,0.202,3.361,0.886,5.076,1.095c4.058,0.493,8.071,0.352,11.902-1.317c0.285-0.124,0.592-0.227,0.897-0.273
		C246.635,316.583,246.852,316.163,246.372,315.506z"/>
	<path fill-rule="evenodd" clip-rule="evenodd" fill="#E6E7E8" d="M216.549,318.18c0.82-0.646,1.688-1.337,2.512-1.979
		c0.606-0.47,1.122-1.006,0.939-1.846c-0.307-1.401,0.44-2.065,1.613-2.51c0.441-0.165,0.902-0.302,1.126-0.847
		c0.264-0.642,0.664-1.225,0.992-1.841c0.246-0.46,0.636-0.96,0.427-1.469c-0.513-1.246,0.189-1.952,0.984-2.695
		c0.56-0.524,1.083-1.098,1.555-1.701c0.216-0.278,1.011-0.553,0.313-1.027c-0.532-0.36-1.034-1.319-1.908-0.336
		c-0.709,0.798-1.364,1.704-2.486,2.02c-0.21,0.058-0.372,0.25-0.348,0.476c0.084,0.817-0.524,1.087-1.083,1.351
		c-1.037,0.488-1.797,1.152-1.902,2.387c-0.031,0.376-0.191,0.745-0.561,0.956c-0.477,0.091-0.966,0.143-1.428,0.282
		c-1.21,0.366-2.863-0.082-3.293,1.752c-1.349,0.536-1.243,1.675-1.164,2.803c-0.018,0.193-0.036,0.385-0.054,0.578
		c-0.051,0-0.099,0.007-0.146,0.022c-0.022-0.267-0.045-0.533-0.067-0.801c-0.012-0.587-0.024-1.176-0.036-1.764
		c0.116-0.399,0.378-0.654,0.765-0.792c0.395-0.141,0.726-0.45,0.713-0.824c-0.031-0.956,0.654-0.984,1.282-1.132
		c0.936-0.076,1.838-0.317,2.732-0.592c0.344-0.104,0.659-0.228,0.675-0.673c0.048-1.347,0.708-2.276,1.932-2.826
		c0.14-0.063,0.304-0.184,0.236-0.392c-1.233-0.279-2.323,0.007-3.32,0.754c-0.416,0.313-0.874,0.572-1.398,0.679
		c-0.413-0.092-0.826-0.183-1.239-0.273c-0.138-0.869,0.472-1.102,1.113-1.197c0.908-0.138,1.31-0.652,1.435-1.521
		c0.189-1.311,1.469-1.698,2.244-2.509c0.474-0.494,1.103-0.85,1.686-1.229c0.761-0.497,1.511-1.056,2.363-0.06
		c0.387,0.452,0.979,0.194,1.352-0.07c0.961-0.688,1.549-0.179,2.116,0.529c0.173,0.217,0.318,0.456,0.479,0.685
		c0.803,1.136,1.109,1.211,2.143,0.222c0.6-0.573,1.045-0.529,1.618-0.056c0.612,0.508,1.254,0.981,1.889,1.461
		c0.161,0.123,0.39,0.351,0.509,0.308c1.542-0.539,1.987,0.807,2.713,1.597c0.361,0.391,0.758,0.823,0.851,1.407
		c-0.581,0.397-1.277,0.27-1.913,0.374c-2.006,0.326-2.012,0.287-2.815-1.561c-0.042-0.097-0.069-0.199-0.114-0.294
		c-0.303-0.64-0.583-0.48-0.851,0.027c-0.783,0.375-1.569,0.744-2.348,1.13c-0.486,0.24-0.692,0.537-0.274,1.062
		c0.457,0.573,0.81,1.184,0.772,2c-0.044,0.979-0.351,2.034,0.72,2.966c-1.332-0.279-1.194-1.103-1.198-1.863
		c-0.003-0.907,0.159-1.89-0.959-2.411c-0.103,1.49-0.107,1.488-1.125,2.957c-0.116,0.167-0.241,0.381-0.237,0.57
		c0.028,1.217-0.626,2.062-1.46,2.824c-0.396,0.434-0.514,0.983-0.602,1.532c-0.14,0.878-0.017,1.541,1.089,1.722
		c0.625,0.102,1.318,0.209,1.837,0.683c-1.858,0.304-3.681,0.815-5.566,0.96l0.007,0.001
		C221.242,318.17,216.724,318.208,216.549,318.18z"/>
	<path fill-rule="evenodd" clip-rule="evenodd" fill="#6A8084" d="M231.727,304.033c0.268-0.508,0.548-0.667,0.851-0.027
		c0.045,0.095,0.072,0.197,0.114,0.294c0.803,1.848,0.81,1.887,2.815,1.561c0.636-0.104,1.332,0.023,1.913-0.374
		c1.209,1.146,2.811,1.875,3.48,3.595c0.44,1.131,1.797,0.896,2.655,1.436c-0.34,0.18-0.838,0.181-0.312,0.818
		c1.107,1.337,2.104,2.768,3.129,4.171c0.48,0.657,0.263,1.077-0.556,1.202c-0.306,0.047-0.612,0.149-0.897,0.273
		c-3.832,1.669-7.845,1.811-11.902,1.317c-1.715-0.209-3.348-0.893-5.076-1.095c-0.519-0.474-1.211-0.581-1.836-0.683
		c-1.105-0.181-1.229-0.844-1.089-1.722c0.087-0.549,0.206-1.099,0.602-1.532c0.147,0.148,0.27,0.341,0.445,0.437
		c0.681,0.373,0.913,1.421,1.917,1.297c1.637-0.202,3.265-0.496,4.647-1.451c1.308-0.903,1.32-1.308-0.067-2.049
		c-0.989-0.527-0.955-1.063-0.43-1.803c0.436-0.616,0.215-0.953-0.339-1.365c-1.226-0.911-1.27-1.439-0.588-2.837
		C231.425,305.038,231.726,304.582,231.727,304.033z"/>
	<path fill-rule="evenodd" clip-rule="evenodd" fill="#6A8084" d="M212.783,314.533c0.018-0.193,0.036-0.385,0.054-0.578
		c1.086,0.523,1.807-0.142,2.453-0.83c0.537-0.573,1.125-0.922,1.907-0.877c0.541,0.033,0.791-0.248,1.029-0.697
		c0.411-0.773,0.116-1.668,0.496-2.433c0.37-0.211,0.529-0.58,0.561-0.956c0.104-1.234,0.865-1.898,1.902-2.387
		c0.559-0.264,1.167-0.533,1.083-1.351c-0.023-0.226,0.138-0.418,0.348-0.476c1.122-0.315,1.777-1.222,2.486-2.02
		c0.874-0.983,1.376-0.024,1.908,0.336c0.698,0.475-0.097,0.749-0.313,1.027c-0.471,0.604-0.995,1.177-1.555,1.701
		c-0.794,0.743-1.497,1.449-0.984,2.695c0.209,0.509-0.181,1.009-0.427,1.469c-0.328,0.616-0.728,1.199-0.992,1.841
		c-0.224,0.545-0.685,0.682-1.126,0.847c-1.173,0.444-1.92,1.108-1.613,2.51c0.183,0.84-0.333,1.376-0.939,1.846
		c-0.825,0.642-1.64,1.292-2.461,1.938c-1.735,0.987-3.394,0.8-5.228,0.056c-1.625-0.66-3.398-0.989-5.082-1.555
		c-0.376-0.127-0.779-0.103-0.759-0.646c0.017-0.472,0.363-0.489,0.717-0.585c1.831-0.499,3.192-1.488,3.493-3.518
		c0.788-0.753,1.617-1.357,2.7-1.729c0.984-0.338,1.384-1.43,1.774-2.376c0.252-0.614,0.465-1.244,0.694-1.867
		c0.414,0.091,0.826,0.182,1.239,0.273c0.224,1.158-0.111,2.162-0.855,3.05c-0.627,0.147-1.313,0.176-1.282,1.132
		c0.013,0.374-0.319,0.684-0.713,0.824c-0.387,0.138-0.649,0.393-0.764,0.792c-0.656,0.068-1.209,0.514-1.278,1.034
		c-0.072,0.541,0.736,0.428,1.115,0.678c0.054,0.036,0.132,0.035,0.198,0.052c0.022,0.268,0.045,0.534,0.066,0.801"/>
	<path fill-rule="evenodd" clip-rule="evenodd" fill="#92A8AA" d="M231.727,304.033c-0.001,0.549-0.302,1.005-0.525,1.463
		c-0.682,1.397-0.638,1.926,0.588,2.837c0.554,0.412,0.775,0.749,0.339,1.365c-0.525,0.74-0.559,1.275,0.43,1.803
		c1.387,0.741,1.375,1.146,0.067,2.049c-1.382,0.955-3.01,1.249-4.647,1.451c-1.003,0.124-1.236-0.924-1.917-1.297
		c-0.176-0.096-0.298-0.288-0.445-0.437c0.834-0.763,1.489-1.607,1.46-2.824c-0.004-0.189,0.122-0.403,0.237-0.57
		c1.019-1.469,1.023-1.467,1.125-2.957c1.118,0.521,0.956,1.504,0.959,2.411c0.003,0.761-0.134,1.584,1.198,1.863
		c-1.071-0.932-0.764-1.986-0.72-2.966c0.037-0.816-0.316-1.427-0.772-2c-0.417-0.524-0.212-0.821,0.274-1.062
		C230.157,304.777,230.944,304.408,231.727,304.033z"/>
	<path fill-rule="evenodd" clip-rule="evenodd" fill="#92A8AA" d="M218.722,309.118c-0.379,0.765-0.085,1.659-0.496,2.433
		c-0.239,0.449-0.488,0.73-1.029,0.697c-0.782-0.045-1.37,0.304-1.907,0.877c-0.646,0.688-1.367,1.354-2.453,0.83
		c-0.08-1.128-0.185-2.267,1.164-2.803c0.43-1.834,2.083-1.386,3.293-1.752C217.756,309.261,218.246,309.209,218.722,309.118z"/>
	<path fill-rule="evenodd" clip-rule="evenodd" fill="#92A8AA" d="M215.293,309.243c0.745-0.888,1.079-1.892,0.855-3.05
		c0.524-0.106,0.982-0.366,1.398-0.679c0.998-0.747,2.087-1.033,3.32-0.754c0.068,0.208-0.096,0.329-0.236,0.392
		c-1.224,0.55-1.883,1.479-1.932,2.826c-0.016,0.445-0.331,0.568-0.675,0.673C217.131,308.926,216.229,309.167,215.293,309.243z"/>
	<path fill-rule="evenodd" clip-rule="evenodd" fill="#92A8AA" d="M212.569,313.755c-0.066-0.017-0.145-0.016-0.198-0.052
		c-0.379-0.25-1.187-0.137-1.115-0.678c0.069-0.521,0.622-0.966,1.278-1.034C212.545,312.579,212.558,313.168,212.569,313.755z"/>
	<linearGradient id="SVGID_2_" gradientUnits="userSpaceOnUse" x1="221.3496" y1="312.3301" x2="224.889" y2="300.1912">
		<stop  offset="0" style="stop-color:#AE1F24"/>
		<stop  offset="0.2528" style="stop-color:#AF2226"/>
		<stop  offset="0.4049" style="stop-color:#B02A2F"/>
		<stop  offset="0.5303" style="stop-color:#B3383D"/>
		<stop  offset="0.6413" style="stop-color:#B84D50"/>
		<stop  offset="0.7426" style="stop-color:#BD676A"/>
		<stop  offset="0.8371" style="stop-color:#C48789"/>
		<stop  offset="0.9243" style="stop-color:#CCADAE"/>
		<stop  offset="1" style="stop-color:#D4D4D4"/>
	</linearGradient>
	<path fill-rule="evenodd" clip-rule="evenodd" fill="url(#SVGID_2_)" d="M216.549,318.18c0.82-0.646,1.688-1.337,2.512-1.979
		c0.606-0.47,1.122-1.006,0.939-1.846c-0.307-1.401,0.44-2.065,1.613-2.51c0.441-0.165,0.902-0.302,1.126-0.847
		c0.264-0.642,0.664-1.225,0.992-1.841c0.246-0.46,0.636-0.96,0.427-1.469c-0.513-1.246,0.189-1.952,0.984-2.695
		c0.56-0.524,1.083-1.098,1.555-1.701c0.216-0.278,1.011-0.553,0.313-1.027c-0.532-0.36-1.034-1.319-1.908-0.336
		c-0.709,0.798-1.364,1.704-2.486,2.02c-0.21,0.058-0.372,0.25-0.348,0.476c0.084,0.817-0.524,1.087-1.083,1.351
		c-1.037,0.488-1.797,1.152-1.902,2.387c-0.031,0.376-0.191,0.745-0.561,0.956c-0.477,0.091-0.966,0.143-1.428,0.282
		c-1.21,0.366-2.863-0.082-3.293,1.752c-1.349,0.536-1.243,1.675-1.164,2.803c-0.018,0.193-0.036,0.385-0.054,0.578
		c-0.051,0-0.099,0.007-0.146,0.022c-0.022-0.267-0.045-0.533-0.067-0.801c-0.012-0.587-0.024-1.176-0.036-1.764
		c0.116-0.399,0.378-0.654,0.765-0.792c0.395-0.141,0.726-0.45,0.713-0.824c-0.031-0.956,0.654-0.984,1.282-1.132
		c0.936-0.076,1.838-0.317,2.732-0.592c0.344-0.104,0.659-0.228,0.675-0.673c0.048-1.347,0.708-2.276,1.932-2.826
		c0.14-0.063,0.304-0.184,0.236-0.392c-1.233-0.279,1.49-2.54,2.498-2.995c0.232-0.105,1.192-0.672,2.212-0.92
		c0.866-0.212,1.787-0.115,2.214-0.151c0.453,0.595,0.634,0.756,0.953,0.747c0.631-0.018,3.25,2.084,2.981,2.592
		c-0.783,0.375-1.569,0.744-2.348,1.13c-0.486,0.24-0.692,0.537-0.274,1.062c0.457,0.573,0.81,1.184,0.772,2
		c-0.044,0.979-0.351,2.034,0.72,2.966c-1.332-0.279-1.194-1.103-1.198-1.863c-0.003-0.907,0.159-1.89-0.959-2.411
		c-0.103,1.49-0.107,1.488-1.125,2.957c-0.116,0.167-0.241,0.381-0.237,0.57c0.028,1.217-0.626,2.062-1.46,2.824
		c-0.396,0.434-0.514,0.983-0.602,1.532c-0.14,0.878-0.017,1.541,1.089,1.722c0.625,0.102,1.318,0.209,1.837,0.683
		c-1.858,0.304-3.681,0.815-5.566,0.96l0.007,0.001C221.242,318.17,216.724,318.208,216.549,318.18z"/>
</g>
<g id="Mount_erebus">
	<path fill-rule="evenodd" clip-rule="evenodd" fill="#F1F1F2" stroke="#231F20" stroke-width="0.1627" stroke-miterlimit="10" d="
		M315.111,364.199c3.508-1.992,9.499-3.643,13.384-4.611c0.1-0.023,21.973-0.811,21.973-0.811s8.101,2.848,11.36,3.835
		c11.074,3.352-2.655,7.695-6.978,10.285c-12.161,7.287-17.468,4.851-19.256,3.881c-5.177-2.807-10.4-5.529-15.609-8.276
		c-1.625-0.855-3.271-1.674-4.895-2.532C313.599,365.183,313.577,365.07,315.111,364.199z"/>
	<path fill-rule="evenodd" clip-rule="evenodd" fill="#6D6E70" stroke="#231F20" stroke-width="0.1627" stroke-miterlimit="10" d="
		M357.455,365.705c-1.187,0.117-3.036-0.596-4.032,0.204c-0.924,0.742-3.354,0.819-4.55,0.463c-1.281-0.381-2.808-0.003-4.087,0.518
		c-2.562,1.043-5.025,1.232-7.874,0.055c-1.984-0.821-2.513-0.819-4.496,0.136c-0.392,0.189-2.051,0.257-2.424-0.027
		c-1.361-1.032-2.144-0.553-3.67-0.242c-1.086,0.22-2.153,0.048-3.228-0.225c-3.264-0.827,3.271-5.31,3.271-5.31
		c1.491-0.77,3.101-1.3,4.471-2.313c2.023-1.497,3.373-6.703,4.21-8.869c0.533-1.378,8.82-0.521,9.167-0.068
		c1.558,2.03,3.576,5.805,4.858,8.014c0.771,1.328,1.682,2.573,3.428,2.711C353.506,362.436,355.003,364.479,357.455,365.705z"/>
	<path fill-rule="evenodd" clip-rule="evenodd" fill="#F1F1F2" stroke="#231F20" stroke-width="0.1627" stroke-miterlimit="10" d="
		M326.366,361.276c1.491-0.77,3.101-1.3,4.471-2.313c2.023-1.497,2.593-3.81,3.43-5.976c0.533-1.378,2.51-3.215,2.869-2.837
		c0.907,0.376,0.663,1.19,0.722,1.89c-0.003,0.212-0.014,0.424-0.007,0.636c0.02,0.615-0.255,1.522,0.474,1.684
		c0.876,0.194,1.254-3.947,2.118-4.06c0.747-0.099,0.888,0.645,1.223,1.112c0.915,1.275,1.058,5.793,2.694,7.45
		c0.177,0.179,0.302,0.505,0.61,0.396c0.268-0.092,0.46-0.381,0.311-0.65c-1.238-2.244-1.84-7.891-1.644-8.141
		c0.536-0.68,1.011,0.643,1.358,1.095c1.557,2.031,2.795,4.268,4.077,6.477c0.771,1.328,1.682,2.573,3.428,2.711
		c-1.674-1.786-7.225-9.938-9.717-14.916c-0.259-0.519-1.379,0.132-1.94,0.119c-1.655-0.038-3.34,0.54-4.98-0.068
		C334.87,350.979,326.486,360.979,326.366,361.276z"/>
	<ellipse fill-rule="evenodd" clip-rule="evenodd" fill="#231F20" cx="339.324" cy="345.915" rx="3.569" ry="0.817"/>
	<path fill-rule="evenodd" clip-rule="evenodd" fill="#AE1F24" d="M336.137,346.259c0,0.126,1.356,0.47,3.12,0.47
		c1.763,0,3.266-0.344,3.266-0.47s-1.427-0.385-3.191-0.385C337.568,345.874,336.137,346.133,336.137,346.259z"/>
	<path fill-rule="evenodd" clip-rule="evenodd" fill="#808184" stroke="#231F20" stroke-width="0.1627" stroke-miterlimit="10" d="
		M341.749,345.973c0.422,0.115-0.547-0.405-0.287-0.876c0.938-1.699,0.662-2.79-0.921-3.878c-0.7-0.481-1.466-0.871-1.913-1.666
		c-0.601-1.069-0.446-1.919,0.535-2.639c0.521-0.383,1.059-0.742,1.591-1.109c2.49-1.724,1.625-3.981,0.041-5.366
		c-1.159-1.013-2.587-1.339-4.07-1.441c-0.271-0.019-0.673-0.083-0.715,0.306c-0.034,0.33,0.348,0.344,0.591,0.408
		c1.02,0.271,2.067,0.488,2.762,1.413c0.338,0.45,0.734,0.926,0.467,1.538c-0.259,0.596-0.801,0.839-1.413,0.912
		c-0.638,0.077-1.276,0.132-1.913,0.216c-1.913,0.251-3.146,1.562-3.348,3.543c-0.185,1.814,0.899,3.465,2.661,4.065
		c0.756,0.258,1.545,0.308,2.322,0.44c1.129,0.194,1.682,0.898,1.615,2.052c-0.056,0.962-2.859,2.143-1.86,1.952
		C339.113,345.612,340.956,345.756,341.749,345.973z"/>
</g>
<g id="Ansmet">
	<path fill-rule="evenodd" clip-rule="evenodd" fill="#F1F1F2" stroke="#231F20" stroke-width="0.1025" stroke-miterlimit="10" d="
		M403.513,264.736c-0.012-2.214-12.107-5.209-18.193-6.994l-22.583,2.252c-3.252,1.112-15.398,3.764-16.064,5.327
		c-0.334,0.785,5.82,4.544,12.396,8.045c-0.586-0.133-1.081-0.209-1.454-0.214c-4.116-0.06-21.236,6.23-24.694,7.276
		c-11.746,3.556,4.161,9.796,8.745,12.543c12.899,7.729,18.526,5.145,20.423,4.116c5.491-2.978,11.031-5.864,16.556-8.777
		c1.723-0.908,3.468-1.775,5.19-2.686c1.582-0.835,1.604-0.953-0.022-1.879c-1.378-0.783-4.767-2.432-8.695-4.2
		C381.003,277.525,403.522,266.771,403.513,264.736z"/>
	<linearGradient id="SVGID_3_" gradientUnits="userSpaceOnUse" x1="372.9824" y1="266.7129" x2="372.8993" y2="255.4696">
		<stop  offset="0" style="stop-color:#808184"/>
		<stop  offset="0.152" style="stop-color:#9A9B9E"/>
		<stop  offset="0.4032" style="stop-color:#C0C0C2"/>
		<stop  offset="0.6363" style="stop-color:#DBDBDC"/>
		<stop  offset="0.8425" style="stop-color:#EBEBEC"/>
		<stop  offset="1" style="stop-color:#F1F1F2"/>
	</linearGradient>
	
		<path fill-rule="evenodd" clip-rule="evenodd" fill="url(#SVGID_3_)" stroke="#231F20" stroke-width="0.1589" stroke-miterlimit="10" d="
		M386.857,264.452c-0.067-0.34-0.132-0.681-0.197-1.021c-0.74-1.828-1.16-3.73-1.341-5.688c-0.375-1.16-2.667-3.263-3.665-3.137
		c-1.021,0.13-1.325-0.298-1.472-1.15c-0.143-0.835-0.371-1.655-0.51-2.49c-0.353-2.079-1.432-2.965-3.491-2.893
		c-0.597,0.021-1.454,0.302-1.657-0.503c-0.257-1.007-0.7-1.375-1.75-1.383c-1.186-0.01-1.797,0.599-2.084,1.569
		c-0.31,1.048-0.957,1.163-1.82,0.876c-0.905-0.301-1.686,0.108-2.129,1.111c0.2,0.248-1.537-1.018-2.213,1.37
		c-0.402,1.422-0.868,2.835-1.356,4.236c-0.151,0.434-0.218,1.112-0.707,1.171c-1.348,0.162-1.361,1.291-1.755,2.155
		c-0.344,0.755-0.388,1.667-1.153,2.202c0.337,0.385-0.494,1.675-0.494,1.675C355.366,274.39,390.649,267.765,386.857,264.452z"/>
	<path fill-rule="evenodd" clip-rule="evenodd" fill="#6D6E70" stroke="#231F20" stroke-width="0.1589" stroke-miterlimit="10" d="
		M359.062,262.553c-0.201,1.354,0.482,3.748,2.397,3.35c0.897-0.188,1.496,1.465,1.973,1.079c0.488-0.395,1.221-0.722,1.805-0.494
		c1.528,0.593,0.528,1.932,2.346,1.788c1.354-0.105,1.68-1.844,2.79-1.682c2.116,0.308,1.785,1.488,3.652,0.33
		c0.431-0.268,0.616-0.152,0.919,0.161c1.484,1.535,2.79-1.344,3.197-1.324c0.572,0.026,1.609,1.586,2.023,1.472
		c1.118-0.309,1.428-1.125,2.281-1.284c0.818-0.152,1.723,0.693,2.555,0.357c0.674-0.271,1.468-0.378,1.311-1.429
		c-0.049-0.324,0.26-0.412,0.546-0.425c0.288,0.443,0.675,0.852,0.845,1.335c0.315,0.896,0.24,1.535-0.959,1.87
		c-3.807,1.059-7.604,1.943-11.605,1.551c-1.798-0.177-3.565,0.425-5.347,0.495c-3.013,0.117-5.994-0.183-8.749-1.595
		c-0.142-0.073-0.277-0.155-0.419-0.228c-2.976-1.521-3.243-2.264-1.833-5.093C358.88,262.709,358.971,262.631,359.062,262.553z"/>
	<path fill-rule="evenodd" clip-rule="evenodd" fill="#6D6E70" stroke="#231F20" stroke-width="0.0822" stroke-miterlimit="10" d="
		M375.076,285.272c0.002-0.017,0.006-0.032,0.008-0.048c-3.033-0.674-6.065-1.347-9.097-2.021c0.002-0.016,0.004-0.03,0.006-0.045
		c2.968,0.348,5.935,0.696,8.904,1.045c0.002-0.014,0.003-0.026,0.005-0.038c-3.068-0.45-6.137-0.9-9.206-1.351
		c0.001-0.014,0.002-0.027,0.003-0.041c2.91-0.038,5.822-0.077,8.732-0.116c-0.288-0.021-0.579-0.053-0.868-0.066
		c-1.009-0.048-2.019-0.064-3.028-0.112c-0.824-0.039-1.647-0.077-2.472-0.1c-0.74-0.02-1.479-0.069-2.218-0.133
		c2.347-0.108,4.695-0.216,7.042-0.324c-2.426-0.043-4.851,0.059-7.278,0.046c2.293-0.306,4.586-0.611,6.879-0.917
		c-0.002-0.014-0.003-0.027-0.004-0.041c-2.425,0.242-4.85,0.483-7.274,0.726c-0.006-0.014-0.013-0.027-0.02-0.041
		c1.039-0.466,2.078-0.931,3.117-1.396c-0.008-0.02-0.017-0.039-0.024-0.058c-0.398,0.146-0.798,0.29-1.196,0.438
		c-1.017,0.374-2.033,0.748-3.047,1.127c-0.116,0.043-0.21,0.033-0.321-0.017c-0.104-0.047-0.209-0.087-0.315-0.128
		c-0.383-0.19-0.792-0.303-1.201-0.417c-0.236-0.066-0.456-0.089-0.677,0.021c-0.111,0.055-0.202,0.044-0.278-0.055
		c-0.161-0.211-0.39-0.26-0.637-0.3c-0.289-0.047-0.581-0.082-0.923-0.116c0.736-0.478,1.37-0.992,2.016-1.495
		c-0.148,0.013-0.275,0.057-0.401,0.105c-0.896,0.349-1.79,0.699-2.686,1.045c-0.075,0.03-0.173,0.116-0.238,0.038
		c-0.05-0.061,0.036-0.146,0.068-0.22c0.161-0.369,0.391-0.708,0.506-1.099l-0.009-0.008c-0.618,0.304-1.17,0.715-1.754,1.075
		c-0.347,0.213-0.331,0.229-0.49-0.147c-0.149-0.353-0.269-0.719-0.486-1.107c-0.122,0.452-0.23,0.845-0.333,1.24
		c-0.036,0.136-0.089,0.188-0.239,0.125c-0.334-0.142-0.677-0.266-1.015-0.401c-0.477-0.189-0.953-0.384-1.431-0.577
		c-0.03,0.096,0.033,0.121,0.068,0.158c0.36,0.384,0.724,0.764,1.083,1.146c0.045,0.05,0.146,0.087,0.095,0.172
		c-0.036,0.061-0.12,0.073-0.197,0.069c-0.321-0.017-0.661,0.138-0.955-0.115c-0.02-0.017-0.063-0.014-0.093-0.011
		c-0.544,0.07-1.087,0.143-1.623,0.265c-0.509,0.117-0.509,0.117-0.561,0.637c-0.001,0.01-0.023,0.017-0.053,0.036
		c-0.068-0.074-0.145-0.146-0.208-0.229c-0.131-0.172-0.28-0.217-0.485-0.125c-0.25,0.113-0.513,0.197-0.764,0.309
		c-0.112,0.05-0.206,0.059-0.321,0.016c-1.015-0.379-2.031-0.753-3.047-1.128c-0.399-0.146-0.798-0.29-1.197-0.436
		c-0.008,0.019-0.016,0.038-0.024,0.057c1.039,0.465,2.078,0.931,3.117,1.396c-0.006,0.014-0.013,0.027-0.019,0.041
		c-2.425-0.242-4.85-0.483-7.275-0.725c-0.001,0.013-0.002,0.027-0.003,0.04c2.293,0.307,4.586,0.612,6.879,0.917
		c-2.428,0.013-4.853-0.089-7.278-0.046c2.347,0.108,4.694,0.216,7.042,0.324c-0.74,0.063-1.479,0.112-2.219,0.133
		c-0.825,0.022-1.647,0.062-2.471,0.101c-1.01,0.047-2.021,0.064-3.03,0.111c-0.289,0.015-0.579,0.045-0.868,0.067
		c2.911,0.038,5.822,0.078,8.732,0.117c0.001,0.013,0.002,0.024,0.003,0.039c-3.069,0.449-6.137,0.9-9.206,1.351
		c0.001,0.012,0.003,0.024,0.005,0.038c2.968-0.349,5.936-0.697,8.904-1.045c0.002,0.015,0.004,0.03,0.007,0.045
		c-3.033,0.674-6.066,1.347-9.099,2.02c0.002,0.016,0.005,0.033,0.008,0.049c3.126-0.428,6.253-0.856,9.38-1.284
		c0.001,0.011,0.003,0.021,0.005,0.033c-2.581,0.608-5.162,1.216-7.743,1.823c0.047,0.037,0.088,0.044,0.126,0.036
		c0.917-0.18,1.835-0.361,2.752-0.542c1.883-0.37,3.766-0.742,5.649-1.108c0.28-0.055,0.513-0.149,0.586-0.454
		c0.351,0.074,0.474,0.387,0.675,0.609c0.141,0.154,0.284,0.187,0.446,0.07c0.127-0.092,0.246-0.091,0.386-0.046
		c0.43,0.139,0.871,0.241,1.317,0.314c0.311,0.053,0.621,0.116,0.964,0.181c-0.272,0.248-0.518,0.469-0.761,0.692
		c-1.017,0.937-2.038,1.872-3.045,2.818c-0.148,0.14-0.347,0.234-0.437,0.436c0.175-0.024,0.268-0.17,0.395-0.265
		c1.34-1,2.678-2.004,4.021-3c0.149-0.111,0.273-0.271,0.515-0.333c-0.438,1.239-0.865,2.444-1.291,3.648
		c0.018,0.008,0.035,0.016,0.052,0.022c0.65-1.118,1.299-2.235,1.949-3.353c0.013,0.007,0.025,0.015,0.038,0.021
		c-0.139,1.312-0.279,2.622-0.419,3.934c0.009,0.003,0.018,0.003,0.027,0.005c0.299-1.299,0.599-2.599,0.898-3.897
		c0.014-0.001,0.028-0.004,0.042-0.005c0.347,1.294,0.693,2.589,1.04,3.883c-0.01-0.405-0.042-0.808-0.077-1.209
		c-0.043-0.498-0.093-0.995-0.134-1.493c-0.041-0.499-0.07-0.999-0.113-1.497c-0.015-0.166,0.051-0.22,0.208-0.204
		c0.168,0.019,0.337,0.04,0.506,0.036c0.574-0.008,1.148-0.023,1.722-0.041c0.189-0.006,0.369-0.003,0.523,0.135
		c0.092,0.08,0.196,0.074,0.274-0.031c0.12-0.159,0.295-0.188,0.474-0.195c0.403-0.018,0.803-0.066,1.2-0.14
		c0.141-0.024,0.194,0.009,0.213,0.166c0.138,1.137,0.28,2.272,0.441,3.405c0.032,0.227-0.01,0.47,0.101,0.672
		c0-1.252,0-2.511,0-3.827c0.76,1.328,1.491,2.604,2.221,3.882c0.02-0.01,0.04-0.02,0.059-0.029
		c-0.559-1.33-1.119-2.659-1.678-3.988c0.083-0.008,0.121,0.007,0.152,0.03c0.648,0.48,1.292,0.968,1.944,1.442
		c0.534,0.39,1.049,0.807,1.61,1.159l0.005-0.004c-0.006-0.094-0.081-0.138-0.139-0.19c-0.34-0.311-0.68-0.622-1.022-0.929
		c-0.379-0.339-0.764-0.673-1.141-1.013c-0.228-0.206-0.449-0.421-0.672-0.631c0.239-0.004,0.416,0.106,0.602,0.195
		c0.028-0.02,0.056-0.038,0.084-0.058c0.072-0.086,0.154-0.048,0.235-0.016c-0.076-0.153-0.244-0.165-0.37-0.24
		c-0.189-0.11-0.209-0.298-0.2-0.478c0.003-0.054,0.382-0.091,0.857-0.119l0.045,0.19c0.057-0.062,0.107-0.131,0.158-0.2
		c0.278-0.014,0.574-0.022,0.838-0.03c0.081,0.034,0.169,0.059,0.265,0.077c1.883,0.366,3.766,0.738,5.649,1.109
		c0.917,0.18,1.835,0.361,2.753,0.54c0.038,0.007,0.078,0.002,0.126-0.035c-2.581-0.608-5.162-1.217-7.743-1.824
		c0.002-0.011,0.004-0.021,0.006-0.032C368.823,284.416,371.95,284.845,375.076,285.272z M364.421,284.131
		c-0.262,0.035-0.566-0.135-0.566-0.135s-0.78-0.445-0.786-0.454c-0.25-0.16-0.51-0.304-0.792-0.399
		c-0.126-0.043-0.203-0.105-0.228-0.247c-0.044-0.254-0.108-0.505-0.171-0.79c-0.059,0.192-0.115,0.352-0.155,0.515
		c-0.055,0.219-0.16,0.275-0.389,0.208c-0.573-0.169-1.157-0.297-1.753-0.354c-0.151-0.015-0.218-0.087-0.243-0.219
		c-0.057-0.3-0.112-0.601-0.175-0.938c-0.102,0.314-0.168,0.605-0.295,0.876c-0.05,0.106-0.104,0.184-0.255,0.168
		c-0.369-0.038-0.74-0.064-1.111-0.075c-0.55-0.017-1.102-0.021-1.649,0.043c-0.235,0.026-0.362-0.079-0.452-0.277
		c-0.1-0.222-0.211-0.439-0.324-0.676c-0.07,0.292-0.134,0.558-0.196,0.824c-0.034,0.144-0.108,0.217-0.267,0.229
		c-0.643,0.051-1.268,0.208-1.889,0.366c-0.249,0.063-0.415,0.051-0.547-0.18c-0.046-0.079-0.125-0.172-0.219-0.155
		c-0.112,0.02-0.1,0.151-0.131,0.24c-0.07,0.198-0.076,0.415-0.336,0.517c-0.498,0.195-0.491,0.213-0.847-0.173
		c-0.007,0.006-0.015,0.013-0.021,0.018c0.011,0.064,0.02,0.129,0.035,0.191c0.095,0.415-0.1,0.617-0.521,0.542
		c-0.083-0.014-0.167-0.022-0.26,0.01c0.022,0.047,0.034,0.077,0.051,0.104c0.034,0.053,0.09,0.061,0.147,0.072
		c0.074,0.014,0.117,0.076,0.07,0.135c-0.175,0.225-0.452,0.201-0.589-0.055c-0.101-0.186-0.242-0.319-0.422-0.419
		c-0.15-0.082-0.279-0.191-0.395-0.316c-0.324-0.349-0.305-0.71,0.039-1.036c0.399-0.377,0.901-0.553,1.396-0.75
		c0.246-0.1,0.417-0.078,0.583,0.141c0.075,0.099,0.149,0.295,0.294,0.239c0.136-0.054,0.107-0.25,0.114-0.391
		c0.009-0.187,0.084-0.295,0.282-0.325c0.342-0.053,0.68-0.14,1.022-0.184c0.375-0.05,0.76-0.173,1.125,0.058
		c0.042,0.025,0.111,0.021,0.164,0.013c0.908-0.138,1.813-0.307,2.732-0.354c0.377-0.02,0.777-0.075,1.109,0.205
		c0.111,0.095,0.227,0.086,0.304-0.051c0.056-0.1,0.136-0.127,0.243-0.117c0.787,0.071,1.574,0.135,2.356,0.248
		c0.271,0.039,0.543,0.071,0.709,0.348c0.064,0.108,0.195,0.087,0.309,0.034c0.139-0.066,0.281-0.134,0.442-0.091
		c0.342,0.089,0.681,0.187,1.011,0.31l0-0.01c0.495,0.197,0.996,0.373,1.396,0.75C364.715,282.688,364.893,284.064,364.421,284.131z
		"/>
</g>
<g id="McMurdo_station">
	
		<polygon fill="#808184" stroke="#231F20" stroke-width="0.1271" stroke-linecap="round" stroke-linejoin="round" stroke-miterlimit="10" points="
		389.389,413.705 390.131,413.275 390.331,411.204 390.156,410.902 	"/>
	
		<polygon fill="#6D6E70" stroke="#231F20" stroke-width="0.1271" stroke-linecap="round" stroke-linejoin="round" stroke-miterlimit="10" points="
		389.389,413.705 388.218,413.047 389.013,410.408 390.156,410.902 	"/>
	
		<polygon fill="#58595B" stroke="#231F20" stroke-width="0.1271" stroke-linecap="round" stroke-linejoin="round" stroke-miterlimit="10" points="
		414.795,407.665 415.405,407.982 414.336,404.115 414.129,404.2 	"/>
	
		<polygon fill="#808184" stroke="#231F20" stroke-width="0.1271" stroke-linecap="round" stroke-linejoin="round" stroke-miterlimit="10" points="
		416.899,407.188 415.405,407.982 414.336,404.115 415.829,403.425 	"/>
	
		<polygon fill="#58595B" stroke="#231F20" stroke-width="0.1271" stroke-linecap="round" stroke-linejoin="round" stroke-miterlimit="10" points="
		403.141,413.683 403.75,414.001 402.681,410.133 402.474,410.218 	"/>
	
		<polygon fill="#808184" stroke="#231F20" stroke-width="0.1271" stroke-linecap="round" stroke-linejoin="round" stroke-miterlimit="10" points="
		405.245,413.206 403.75,414.001 402.681,410.133 404.174,409.442 	"/>
	
		<polygon fill-rule="evenodd" clip-rule="evenodd" fill="#562167" stroke="#231F20" stroke-width="0.1271" stroke-linecap="round" stroke-linejoin="round" stroke-miterlimit="10" points="
		390.061,398.184 390.061,396.773 391.301,397.472 	"/>
	
		<polygon fill="#8F3F97" stroke="#231F20" stroke-width="0.1271" stroke-linecap="round" stroke-linejoin="round" stroke-miterlimit="10" points="
		386.438,400.015 394.829,404.307 399.597,401.922 400.805,402.494 417.302,394.071 406.525,388.286 390.061,396.773 
		391.301,397.472 	"/>
	
		<polygon fill="#602A73" stroke="#231F20" stroke-width="0.1271" stroke-linecap="round" stroke-linejoin="round" stroke-miterlimit="10" points="
		400.805,411.935 399.623,411.3 399.597,401.922 400.805,402.494 	"/>
	
		<polygon fill="#7F3F97" stroke="#231F20" stroke-width="0.1271" stroke-linecap="round" stroke-linejoin="round" stroke-miterlimit="10" points="
		417.302,403.406 400.805,411.935 400.805,402.494 417.302,394.071 	"/>
	
		<polygon fill="#7F3F97" stroke="#231F20" stroke-width="0.1271" stroke-linecap="round" stroke-linejoin="round" stroke-miterlimit="10" points="
		399.597,408.958 393.165,412.284 394.829,404.307 399.597,401.922 	"/>
	
		<polygon fill="#6A317F" stroke="#231F20" stroke-width="0.1271" stroke-linecap="round" stroke-linejoin="round" stroke-miterlimit="10" points="
		393.165,412.284 384.584,407.495 386.438,400.015 394.829,404.307 	"/>
	
		<polygon fill="#6A317F" stroke="#231F20" stroke-width="0.1271" stroke-linecap="round" stroke-linejoin="round" stroke-miterlimit="10" points="
		394.712,413.959 386.375,409.265 384.584,407.495 393.165,412.284 	"/>
	
		<polygon fill="#7F3F97" stroke="#231F20" stroke-width="0.1271" stroke-linecap="round" stroke-linejoin="round" stroke-miterlimit="10" points="
		399.623,411.257 394.712,413.959 393.165,412.284 399.623,408.958 	"/>
	
		<polygon fill="#602A73" stroke="#231F20" stroke-width="0.1271" stroke-linecap="round" stroke-linejoin="round" stroke-miterlimit="10" points="
		400.805,411.935 399.623,411.3 399.623,408.958 400.805,409.517 	"/>
	
		<polygon fill="#7F3F97" stroke="#231F20" stroke-width="0.1271" stroke-linecap="round" stroke-linejoin="round" stroke-miterlimit="10" points="
		417.302,403.406 400.805,411.935 400.805,409.517 417.302,401.093 	"/>
	
		<polygon fill="#404041" stroke="#231F20" stroke-width="0.1271" stroke-linecap="round" stroke-linejoin="round" stroke-miterlimit="10" points="
		392.804,403.271 413.969,392.281 409.531,389.899 388.328,400.981 	"/>
	<path fill-rule="evenodd" clip-rule="evenodd" fill="#404041" stroke="#231F20" stroke-width="0.1271" stroke-miterlimit="10" d="
		M401.603,385.517c-0.203,0.463-0.453,0.911-0.597,1.392c-0.215,0.725,0.209,1.143,0.956,1.004c0.892-0.165,1.616-0.66,2.313-1.197
		c1.09-0.844,2.035-1.828,2.682-3.053c0.23-0.436,0.363-0.942,0.445-1.433c0.066-0.392-0.237-0.689-0.633-0.639
		c-0.438,0.056-0.862,0.212-1.291,0.333c-0.111,0.031-0.217,0.093-0.343,0.088c0.609-0.375,1.229-0.739,1.991-0.608
		c0.348,0.059,0.514,0.339,0.612,0.646c0.241,0.757,0.207,1.528,0.089,2.3c-0.313,2.079-1.657,3.546-3.694,4.008
		c-0.843,0.19-1.699,0.197-2.539-0.043c-0.784-0.226-1.041-0.659-0.778-1.44c0.158-0.474,0.384-0.923,0.601-1.378
		C401.476,385.372,401.65,385.406,401.603,385.517z"/>
	<path fill-rule="evenodd" clip-rule="evenodd" fill="#404041" stroke="#231F20" stroke-width="0.1271" stroke-miterlimit="10" d="
		M405.51,388.24l1.051-0.171l0.77,1.197c0.188,0.328-1.174,1.336-2.227,0.35L405.51,388.24z"/>
	<path fill-rule="evenodd" clip-rule="evenodd" fill="#404041" stroke="#231F20" stroke-width="0.1271" stroke-miterlimit="10" d="
		M405.245,387.921c0.397-0.249,0.768-0.482,1.156-0.726c0.292,0.174,0.348,0.461,0.26,0.768c-0.09,0.307-0.341,0.455-0.656,0.479
		C405.651,388.468,405.412,388.301,405.245,387.921z"/>
	
		<ellipse transform="matrix(0.7066 0.7076 -0.7076 0.7066 390.765 -173.0823)" fill-rule="evenodd" clip-rule="evenodd" fill="#F1F1F2" stroke="#231F20" stroke-width="0.1271" stroke-linecap="round" stroke-linejoin="round" stroke-miterlimit="10" cx="404.12" cy="384.722" rx="1.599" ry="4.407"/>
	<circle fill-rule="evenodd" clip-rule="evenodd" fill="#404041" cx="402.016" cy="382.324" r="0.575"/>
	
		<line fill="#404041" stroke="#231F20" stroke-width="0.2543" stroke-linecap="round" stroke-linejoin="round" stroke-miterlimit="10" x1="401.853" y1="382.803" x2="402.395" y2="386.919"/>
	
		<line fill="#404041" stroke="#231F20" stroke-width="0.2543" stroke-linecap="round" stroke-linejoin="round" stroke-miterlimit="10" x1="402.219" y1="382.677" x2="404.799" y2="385.012"/>
	
		<line fill="#404041" stroke="#231F20" stroke-width="0.2543" stroke-linecap="round" stroke-linejoin="round" stroke-miterlimit="10" x1="402.395" y1="382.072" x2="405.637" y2="382.724"/>
	
		<line fill="none" stroke="#231F20" stroke-width="0.2543" stroke-linecap="round" stroke-linejoin="round" stroke-miterlimit="10" x1="391.222" y1="390.804" x2="391.222" y2="397.432"/>
	<path fill="#E22A2E" d="M391.448,390.939c0,0.126-0.101,0.228-0.227,0.228l0,0c-0.126,0-0.229-0.102-0.229-0.228v-0.562
		c0-0.126,0.103-0.229,0.229-0.229l0,0c0.126,0,0.227,0.103,0.227,0.229V390.939z"/>
	<radialGradient id="SVGID_4_" cx="391.2217" cy="390.6592" r="1.6768" gradientUnits="userSpaceOnUse">
		<stop  offset="0" style="stop-color:#E22A2E"/>
		<stop  offset="1" style="stop-color:#E22A2E;stop-opacity:0"/>
	</radialGradient>
	<circle opacity="0.5" fill="url(#SVGID_4_)" cx="391.222" cy="390.658" r="1.677"/>
	
		<polygon fill="#F1F1F2" stroke="#231F20" stroke-width="0.1271" stroke-linecap="round" stroke-linejoin="round" stroke-miterlimit="10" points="
		417.302,401.093 400.805,409.517 400.805,408.604 417.302,400.187 	"/>
	
		<polygon fill="#1B75BB" stroke="#231F20" stroke-width="0.1271" stroke-linecap="round" stroke-linejoin="round" stroke-miterlimit="10" points="
		408.556,402.647 403.708,405.331 403.708,402.912 408.556,400.334 	"/>
	
		<polyline fill="#404041" stroke="#231F20" stroke-width="0.1271" stroke-linecap="round" stroke-linejoin="round" stroke-miterlimit="10" points="
		408.556,402.647 408.286,402.479 408.257,400.493 408.556,400.334 	"/>
	
		<polygon fill="#404041" stroke="#231F20" stroke-width="0.1271" stroke-linecap="round" stroke-linejoin="round" stroke-miterlimit="10" points="
		408.556,402.647 403.708,405.331 403.708,404.971 408.286,402.479 	"/>
	
		<polygon fill="#1B75BB" stroke="#231F20" stroke-width="0.1271" stroke-linecap="round" stroke-linejoin="round" stroke-miterlimit="10" points="
		415.342,398.938 410.495,401.621 410.495,399.202 415.342,396.624 	"/>
	
		<polyline fill="#404041" stroke="#231F20" stroke-width="0.1271" stroke-linecap="round" stroke-linejoin="round" stroke-miterlimit="10" points="
		415.342,398.938 415.072,398.768 415.044,396.783 415.342,396.624 	"/>
	
		<polygon fill="#404041" stroke="#231F20" stroke-width="0.1271" stroke-linecap="round" stroke-linejoin="round" stroke-miterlimit="10" points="
		415.342,398.938 410.495,401.621 410.495,401.261 415.072,398.768 	"/>
	
		<polygon fill="#D0D2D3" stroke="#231F20" stroke-width="0.1271" stroke-linecap="round" stroke-linejoin="round" stroke-miterlimit="10" points="
		400.805,408.604 399.597,407.978 399.623,408.958 400.805,409.517 	"/>
	
		<polygon fill="#F1F1F2" stroke="#231F20" stroke-width="0.1271" stroke-linecap="round" stroke-linejoin="round" stroke-miterlimit="10" points="
		393.4,411.159 399.597,407.978 399.623,408.958 393.165,412.284 	"/>
	
		<polygon fill="#BBBDBF" stroke="#231F20" stroke-width="0.1271" stroke-linecap="round" stroke-linejoin="round" stroke-miterlimit="10" points="
		393.4,411.159 384.83,406.499 384.584,407.495 393.165,412.284 	"/>
	
		<polygon fill="#404041" stroke="#231F20" stroke-width="0.1271" stroke-linecap="round" stroke-linejoin="round" stroke-miterlimit="10" points="
		398.562,408.509 396.117,409.765 396.117,404.709 398.562,403.438 	"/>
	
		<polygon fill="#1B75BB" stroke="#231F20" stroke-width="0.1271" stroke-linecap="round" stroke-linejoin="round" stroke-miterlimit="10" points="
		397.901,406.616 396.874,407.137 396.874,405.373 397.901,404.836 	"/>
	
		<polygon fill="#1B75BB" stroke="#231F20" stroke-width="0.1271" stroke-linecap="round" stroke-linejoin="round" stroke-miterlimit="10" points="
		396.164,399.952 410.457,392.684 408.621,391.637 394.289,398.998 	"/>
</g>
<g id="Vostok_station">
	
		<polygon fill="#808184" stroke="#231F20" stroke-width="0.1078" stroke-linecap="round" stroke-linejoin="round" stroke-miterlimit="10" points="
		534.742,207.798 535.371,207.434 535.542,205.677 535.394,205.421 	"/>
	
		<polygon fill="#6D6E70" stroke="#231F20" stroke-width="0.1078" stroke-linecap="round" stroke-linejoin="round" stroke-miterlimit="10" points="
		534.742,207.798 533.749,207.241 534.423,205.003 535.394,205.421 	"/>
	
		<polygon fill="#58595B" stroke="#231F20" stroke-width="0.1078" stroke-linecap="round" stroke-linejoin="round" stroke-miterlimit="10" points="
		556.292,202.675 556.809,202.945 555.9,199.665 555.726,199.737 	"/>
	
		<polygon fill="#808184" stroke="#231F20" stroke-width="0.1078" stroke-linecap="round" stroke-linejoin="round" stroke-miterlimit="10" points="
		558.075,202.271 556.809,202.945 555.9,199.665 557.168,199.079 	"/>
	
		<polygon fill="#58595B" stroke="#231F20" stroke-width="0.1078" stroke-linecap="round" stroke-linejoin="round" stroke-miterlimit="10" points="
		546.406,207.779 546.924,208.049 546.016,204.769 545.841,204.841 	"/>
	
		<polygon fill="#808184" stroke="#231F20" stroke-width="0.1078" stroke-linecap="round" stroke-linejoin="round" stroke-miterlimit="10" points="
		548.19,207.375 546.924,208.049 546.016,204.769 547.283,204.184 	"/>
	
		<polygon fill-rule="evenodd" clip-rule="evenodd" fill="#006D43" stroke="#231F20" stroke-width="0.1078" stroke-linecap="round" stroke-linejoin="round" stroke-miterlimit="10" points="
		535.313,194.634 535.313,193.437 536.364,194.03 	"/>
	
		<polygon fill="#6CBF70" stroke="#231F20" stroke-width="0.1078" stroke-linecap="round" stroke-linejoin="round" stroke-miterlimit="10" points="
		532.239,196.187 539.356,199.827 543.4,197.805 544.425,198.29 558.417,191.146 549.277,186.239 535.313,193.437 536.364,194.03 	
		"/>
	
		<polygon fill="#178957" stroke="#231F20" stroke-width="0.1078" stroke-linecap="round" stroke-linejoin="round" stroke-miterlimit="10" points="
		544.425,206.297 543.423,205.758 543.4,197.805 544.425,198.29 	"/>
	
		<polygon fill="#29B473" stroke="#231F20" stroke-width="0.1078" stroke-linecap="round" stroke-linejoin="round" stroke-miterlimit="10" points="
		558.417,199.063 544.425,206.297 544.425,198.29 558.417,191.146 	"/>
	
		<polygon fill="#29B473" stroke="#231F20" stroke-width="0.1078" stroke-linecap="round" stroke-linejoin="round" stroke-miterlimit="10" points="
		543.4,203.772 537.946,206.593 539.356,199.827 543.4,197.805 	"/>
	
		<polygon fill="#1E9760" stroke="#231F20" stroke-width="0.1078" stroke-linecap="round" stroke-linejoin="round" stroke-miterlimit="10" points="
		537.946,206.593 530.667,202.531 532.239,196.187 539.356,199.827 	"/>
	
		<polygon fill="#1E9760" stroke="#231F20" stroke-width="0.1078" stroke-linecap="round" stroke-linejoin="round" stroke-miterlimit="10" points="
		539.259,208.013 532.186,204.032 530.667,202.531 537.946,206.593 	"/>
	
		<polygon fill="#29B473" stroke="#231F20" stroke-width="0.1078" stroke-linecap="round" stroke-linejoin="round" stroke-miterlimit="10" points="
		543.423,205.722 539.259,208.013 537.946,206.593 543.423,203.772 	"/>
	
		<polygon fill="#178957" stroke="#231F20" stroke-width="0.1078" stroke-linecap="round" stroke-linejoin="round" stroke-miterlimit="10" points="
		544.425,206.297 543.423,205.758 543.423,203.772 544.425,204.247 	"/>
	
		<polygon fill="#29B473" stroke="#231F20" stroke-width="0.1078" stroke-linecap="round" stroke-linejoin="round" stroke-miterlimit="10" points="
		558.417,199.063 544.425,206.297 544.425,204.247 558.417,197.1 	"/>
	
		<polygon fill="#404041" stroke="#231F20" stroke-width="0.1078" stroke-linecap="round" stroke-linejoin="round" stroke-miterlimit="10" points="
		537.64,198.948 555.59,189.628 551.826,187.607 533.843,197.007 	"/>
	<path fill-rule="evenodd" clip-rule="evenodd" fill="#404041" stroke="#231F20" stroke-width="0.1078" stroke-miterlimit="10" d="
		M545.101,183.89c-0.171,0.393-0.384,0.773-0.504,1.181c-0.184,0.614,0.176,0.969,0.811,0.851c0.756-0.14,1.37-0.559,1.961-1.016
		c0.925-0.715,1.726-1.55,2.275-2.588c0.195-0.37,0.308-0.799,0.377-1.215c0.057-0.333-0.201-0.584-0.536-0.542
		c-0.371,0.047-0.731,0.181-1.095,0.283c-0.096,0.027-0.185,0.078-0.291,0.075c0.516-0.319,1.043-0.627,1.689-0.517
		c0.295,0.05,0.435,0.288,0.519,0.548c0.204,0.642,0.175,1.297,0.076,1.95c-0.267,1.764-1.405,3.008-3.134,3.399
		c-0.716,0.162-1.441,0.168-2.154-0.036c-0.665-0.191-0.883-0.56-0.659-1.222c0.135-0.401,0.325-0.783,0.509-1.168
		C544.994,183.768,545.142,183.797,545.101,183.89z"/>
	<path fill-rule="evenodd" clip-rule="evenodd" fill="#404041" stroke="#231F20" stroke-width="0.1078" stroke-miterlimit="10" d="
		M548.416,186.201l0.891-0.145l0.653,1.015c0.159,0.277-0.995,1.133-1.889,0.296L548.416,186.201z"/>
	<path fill-rule="evenodd" clip-rule="evenodd" fill="#404041" stroke="#231F20" stroke-width="0.1078" stroke-miterlimit="10" d="
		M548.191,185.93c0.337-0.212,0.651-0.409,0.98-0.616c0.247,0.147,0.295,0.391,0.22,0.65c-0.075,0.261-0.288,0.387-0.556,0.407
		C548.536,186.394,548.334,186.251,548.191,185.93z"/>
	
		<ellipse transform="matrix(0.7065 0.7077 -0.7077 0.7065 290.2958 -333.5211)" fill-rule="evenodd" clip-rule="evenodd" fill="#F1F1F2" stroke="#231F20" stroke-width="0.1078" stroke-linecap="round" stroke-linejoin="round" stroke-miterlimit="10" cx="547.237" cy="183.217" rx="1.357" ry="3.738"/>
	
		<line fill="#404041" stroke="#231F20" stroke-width="0.2157" stroke-linecap="round" stroke-linejoin="round" stroke-miterlimit="10" x1="545.314" y1="181.589" x2="545.773" y2="185.08"/>
	
		<line fill="#404041" stroke="#231F20" stroke-width="0.2157" stroke-linecap="round" stroke-linejoin="round" stroke-miterlimit="10" x1="545.625" y1="181.481" x2="547.813" y2="183.463"/>
	
		<line fill="none" stroke="#231F20" stroke-width="0.2157" stroke-linecap="round" stroke-linejoin="round" stroke-miterlimit="10" x1="536.297" y1="188.375" x2="536.297" y2="193.996"/>
	<path fill="#E22A2E" d="M536.49,188.49c0,0.106-0.087,0.193-0.193,0.193l0,0c-0.106,0-0.192-0.086-0.192-0.193v-0.477
		c0-0.107,0.086-0.193,0.192-0.193l0,0c0.106,0,0.193,0.086,0.193,0.193V188.49z"/>
	<radialGradient id="SVGID_5_" cx="536.2969" cy="188.252" r="1.4219" gradientUnits="userSpaceOnUse">
		<stop  offset="0" style="stop-color:#E22A2E"/>
		<stop  offset="1" style="stop-color:#E22A2E;stop-opacity:0"/>
	</radialGradient>
	<circle opacity="0.5" fill="url(#SVGID_5_)" cx="536.297" cy="188.251" r="1.422"/>
	
		<polygon fill="#F1F1F2" stroke="#231F20" stroke-width="0.1078" stroke-linecap="round" stroke-linejoin="round" stroke-miterlimit="10" points="
		558.417,197.1 544.425,204.247 544.425,203.473 558.417,196.332 	"/>
	
		<polygon fill="#1B75BB" stroke="#231F20" stroke-width="0.1078" stroke-linecap="round" stroke-linejoin="round" stroke-miterlimit="10" points="
		550.999,198.42 546.888,200.696 546.888,198.645 550.999,196.458 	"/>
	
		<polyline fill="#404041" stroke="#231F20" stroke-width="0.1078" stroke-linecap="round" stroke-linejoin="round" stroke-miterlimit="10" points="
		550.999,198.42 550.77,198.276 550.745,196.592 550.999,196.458 	"/>
	
		<polygon fill="#404041" stroke="#231F20" stroke-width="0.1078" stroke-linecap="round" stroke-linejoin="round" stroke-miterlimit="10" points="
		550.999,198.42 546.888,200.696 546.888,200.391 550.77,198.276 	"/>
	
		<polygon fill="#1B75BB" stroke="#231F20" stroke-width="0.1078" stroke-linecap="round" stroke-linejoin="round" stroke-miterlimit="10" points="
		556.755,195.273 552.644,197.549 552.644,195.498 556.755,193.311 	"/>
	
		<polyline fill="#404041" stroke="#231F20" stroke-width="0.1078" stroke-linecap="round" stroke-linejoin="round" stroke-miterlimit="10" points="
		556.755,195.273 556.525,195.13 556.501,193.446 556.755,193.311 	"/>
	
		<polygon fill="#404041" stroke="#231F20" stroke-width="0.1078" stroke-linecap="round" stroke-linejoin="round" stroke-miterlimit="10" points="
		556.755,195.273 552.644,197.549 552.644,197.244 556.525,195.13 	"/>
	
		<polygon fill="#D0D2D3" stroke="#231F20" stroke-width="0.1078" stroke-linecap="round" stroke-linejoin="round" stroke-miterlimit="10" points="
		544.425,203.473 543.4,202.94 543.423,203.772 544.425,204.247 	"/>
	
		<polygon fill="#F1F1F2" stroke="#231F20" stroke-width="0.1078" stroke-linecap="round" stroke-linejoin="round" stroke-miterlimit="10" points="
		538.145,205.64 543.4,202.94 543.423,203.772 537.946,206.593 	"/>
	
		<polygon fill="#BBBDBF" stroke="#231F20" stroke-width="0.1078" stroke-linecap="round" stroke-linejoin="round" stroke-miterlimit="10" points="
		538.145,205.64 530.877,201.687 530.667,202.531 537.946,206.593 	"/>
	
		<polygon fill="#404041" stroke="#231F20" stroke-width="0.1078" stroke-linecap="round" stroke-linejoin="round" stroke-miterlimit="10" points="
		542.522,203.391 540.449,204.456 540.449,200.168 542.522,199.09 	"/>
	
		<polygon fill="#1B75BB" stroke="#231F20" stroke-width="0.1078" stroke-linecap="round" stroke-linejoin="round" stroke-miterlimit="10" points="
		541.963,201.785 541.091,202.228 541.091,200.731 541.963,200.275 	"/>
	
		<polygon fill="#1B75BB" stroke="#231F20" stroke-width="0.1078" stroke-linecap="round" stroke-linejoin="round" stroke-miterlimit="10" points="
		540.489,196.133 552.611,189.969 551.055,189.081 538.898,195.324 	"/>
</g>
<g id="Palmer_station">
	
		<polygon fill="#808184" stroke="#231F20" stroke-width="0.1245" stroke-linecap="round" stroke-linejoin="round" stroke-miterlimit="10" points="
		136.481,169.732 137.207,169.312 137.404,167.283 137.233,166.988 	"/>
	
		<polygon fill="#6D6E70" stroke="#231F20" stroke-width="0.1245" stroke-linecap="round" stroke-linejoin="round" stroke-miterlimit="10" points="
		136.481,169.732 135.334,169.088 136.113,166.505 137.233,166.988 	"/>
	
		<polygon fill="#58595B" stroke="#231F20" stroke-width="0.1245" stroke-linecap="round" stroke-linejoin="round" stroke-miterlimit="10" points="
		161.354,163.82 161.951,164.131 160.903,160.345 160.702,160.427 	"/>
	
		<polygon fill="#808184" stroke="#231F20" stroke-width="0.1245" stroke-linecap="round" stroke-linejoin="round" stroke-miterlimit="10" points="
		163.414,163.353 161.951,164.131 160.903,160.345 162.366,159.669 	"/>
	
		<polygon fill="#58595B" stroke="#231F20" stroke-width="0.1245" stroke-linecap="round" stroke-linejoin="round" stroke-miterlimit="10" points="
		149.945,169.711 150.542,170.022 149.494,166.236 149.291,166.32 	"/>
	
		<polygon fill="#808184" stroke="#231F20" stroke-width="0.1245" stroke-linecap="round" stroke-linejoin="round" stroke-miterlimit="10" points="
		152.004,169.245 150.542,170.022 149.494,166.236 150.957,165.56 	"/>
	
		<polygon fill-rule="evenodd" clip-rule="evenodd" fill="#8C3703" stroke="#231F20" stroke-width="0.1245" stroke-linecap="round" stroke-linejoin="round" stroke-miterlimit="10" points="
		137.14,154.539 137.14,153.156 138.353,153.84 	"/>
	
		<polygon fill="#F26F21" stroke="#231F20" stroke-width="0.1245" stroke-linecap="round" stroke-linejoin="round" stroke-miterlimit="10" points="
		133.592,156.331 141.808,160.531 146.475,158.197 147.658,158.757 163.808,150.511 153.259,144.848 137.14,153.156 138.353,153.84 
			"/>
	
		<polygon fill="#B34A15" stroke="#231F20" stroke-width="0.1245" stroke-linecap="round" stroke-linejoin="round" stroke-miterlimit="10" points="
		147.658,168 146.501,167.377 146.475,158.197 147.658,158.757 	"/>
	
		<polygon fill="#F16522" stroke="#231F20" stroke-width="0.1245" stroke-linecap="round" stroke-linejoin="round" stroke-miterlimit="10" points="
		163.808,159.649 147.658,168 147.658,158.757 163.808,150.511 	"/>
	
		<polygon fill="#F16522" stroke="#231F20" stroke-width="0.1245" stroke-linecap="round" stroke-linejoin="round" stroke-miterlimit="10" points="
		146.475,165.084 140.179,168.342 141.808,160.531 146.475,158.197 	"/>
	
		<polygon fill="#C7531A" stroke="#231F20" stroke-width="0.1245" stroke-linecap="round" stroke-linejoin="round" stroke-miterlimit="10" points="
		140.179,168.342 131.777,163.653 133.592,156.331 141.808,160.531 	"/>
	
		<polygon fill="#C7531A" stroke="#231F20" stroke-width="0.1245" stroke-linecap="round" stroke-linejoin="round" stroke-miterlimit="10" points="
		141.694,169.98 133.53,165.386 131.777,163.653 140.179,168.342 	"/>
	
		<polygon fill="#F16522" stroke="#231F20" stroke-width="0.1245" stroke-linecap="round" stroke-linejoin="round" stroke-miterlimit="10" points="
		146.501,167.335 141.694,169.98 140.179,168.342 146.501,165.084 	"/>
	
		<polygon fill="#B34A15" stroke="#231F20" stroke-width="0.1245" stroke-linecap="round" stroke-linejoin="round" stroke-miterlimit="10" points="
		147.658,168 146.501,167.377 146.501,165.084 147.658,165.633 	"/>
	
		<polygon fill="#F16522" stroke="#231F20" stroke-width="0.1245" stroke-linecap="round" stroke-linejoin="round" stroke-miterlimit="10" points="
		163.808,159.649 147.658,168 147.658,165.633 163.808,157.384 	"/>
	
		<polygon fill="#404041" stroke="#231F20" stroke-width="0.1245" stroke-linecap="round" stroke-linejoin="round" stroke-miterlimit="10" points="
		139.825,159.517 160.544,148.759 156.2,146.427 135.443,157.277 	"/>
	<path fill-rule="evenodd" clip-rule="evenodd" fill="#404041" stroke="#231F20" stroke-width="0.1245" stroke-miterlimit="10" d="
		M148.438,142.135c-0.198,0.455-0.443,0.894-0.583,1.365c-0.211,0.709,0.203,1.117,0.935,0.981c0.874-0.161,1.583-0.645,2.265-1.172
		c1.068-0.826,1.992-1.791,2.626-2.988c0.226-0.428,0.355-0.922,0.436-1.403c0.063-0.383-0.232-0.673-0.621-0.625
		c-0.428,0.054-0.844,0.208-1.263,0.326c-0.11,0.031-0.213,0.091-0.336,0.086c0.596-0.368,1.204-0.724,1.951-0.596
		c0.34,0.058,0.502,0.333,0.599,0.633c0.236,0.741,0.202,1.497,0.087,2.251c-0.308,2.038-1.622,3.472-3.617,3.923
		c-0.826,0.188-1.664,0.195-2.486-0.04c-0.767-0.221-1.019-0.647-0.762-1.411c0.156-0.463,0.376-0.904,0.587-1.348
		C148.314,141.995,148.485,142.028,148.438,142.135z"/>
	<path fill-rule="evenodd" clip-rule="evenodd" fill="#404041" stroke="#231F20" stroke-width="0.1245" stroke-miterlimit="10" d="
		M152.263,144.803l1.028-0.167l0.755,1.171c0.183,0.32-1.149,1.308-2.181,0.343L152.263,144.803z"/>
	<path fill-rule="evenodd" clip-rule="evenodd" fill="#404041" stroke="#231F20" stroke-width="0.1245" stroke-miterlimit="10" d="
		M152.004,144.491c0.39-0.245,0.752-0.473,1.133-0.711c0.285,0.169,0.34,0.451,0.253,0.751c-0.087,0.301-0.333,0.447-0.641,0.469
		C152.402,145.027,152.168,144.861,152.004,144.491z"/>
	
		<ellipse transform="matrix(0.7067 0.7075 -0.7075 0.7067 144.268 -65.3051)" fill-rule="evenodd" clip-rule="evenodd" fill="#F1F1F2" stroke="#231F20" stroke-width="0.1245" stroke-linecap="round" stroke-linejoin="round" stroke-miterlimit="10" cx="150.903" cy="141.359" rx="1.566" ry="4.314"/>
	<circle fill-rule="evenodd" clip-rule="evenodd" fill="#404041" cx="148.843" cy="139.01" r="0.563"/>
	
		<line fill="#404041" stroke="#231F20" stroke-width="0.2489" stroke-linecap="round" stroke-linejoin="round" stroke-miterlimit="10" x1="148.685" y1="139.479" x2="149.214" y2="143.51"/>
	
		<line fill="#404041" stroke="#231F20" stroke-width="0.2489" stroke-linecap="round" stroke-linejoin="round" stroke-miterlimit="10" x1="149.042" y1="139.356" x2="151.568" y2="141.642"/>
	
		<line fill="#404041" stroke="#231F20" stroke-width="0.2489" stroke-linecap="round" stroke-linejoin="round" stroke-miterlimit="10" x1="149.214" y1="138.765" x2="152.388" y2="139.402"/>
	
		<line fill="none" stroke="#231F20" stroke-width="0.2489" stroke-linecap="round" stroke-linejoin="round" stroke-miterlimit="10" x1="138.276" y1="147.313" x2="138.276" y2="153.8"/>
	<path fill="#E22A2E" d="M138.499,147.445c0,0.124-0.1,0.224-0.223,0.224l0,0c-0.124,0-0.223-0.1-0.223-0.224v-0.549
		c0-0.124,0.1-0.224,0.223-0.224l0,0c0.123,0,0.223,0.1,0.223,0.224V147.445z"/>
	<radialGradient id="SVGID_6_" cx="138.2759" cy="147.1699" r="1.6416" gradientUnits="userSpaceOnUse">
		<stop  offset="0" style="stop-color:#E22A2E"/>
		<stop  offset="1" style="stop-color:#E22A2E;stop-opacity:0"/>
	</radialGradient>
	<circle opacity="0.5" fill="url(#SVGID_6_)" cx="138.276" cy="147.17" r="1.642"/>
	
		<polygon fill="#F1F1F2" stroke="#231F20" stroke-width="0.1245" stroke-linecap="round" stroke-linejoin="round" stroke-miterlimit="10" points="
		163.808,157.384 147.658,165.633 147.658,164.741 163.808,156.498 	"/>
	
		<polygon fill="#1B75BB" stroke="#231F20" stroke-width="0.1245" stroke-linecap="round" stroke-linejoin="round" stroke-miterlimit="10" points="
		155.245,158.908 150.5,161.533 150.5,159.167 155.245,156.642 	"/>
	
		<polyline fill="#404041" stroke="#231F20" stroke-width="0.1245" stroke-linecap="round" stroke-linejoin="round" stroke-miterlimit="10" points="
		155.245,158.908 154.981,158.742 154.953,156.798 155.245,156.642 	"/>
	
		<polygon fill="#404041" stroke="#231F20" stroke-width="0.1245" stroke-linecap="round" stroke-linejoin="round" stroke-miterlimit="10" points="
		155.245,158.908 150.5,161.533 150.5,161.182 154.981,158.742 	"/>
	
		<polygon fill="#1B75BB" stroke="#231F20" stroke-width="0.1245" stroke-linecap="round" stroke-linejoin="round" stroke-miterlimit="10" points="
		161.889,155.276 157.144,157.902 157.144,155.536 161.889,153.011 	"/>
	
		<polyline fill="#404041" stroke="#231F20" stroke-width="0.1245" stroke-linecap="round" stroke-linejoin="round" stroke-miterlimit="10" points="
		161.889,155.276 161.625,155.109 161.597,153.166 161.889,153.011 	"/>
	
		<polygon fill="#404041" stroke="#231F20" stroke-width="0.1245" stroke-linecap="round" stroke-linejoin="round" stroke-miterlimit="10" points="
		161.889,155.276 157.144,157.902 157.144,157.551 161.625,155.109 	"/>
	
		<polygon fill="#D0D2D3" stroke="#231F20" stroke-width="0.1245" stroke-linecap="round" stroke-linejoin="round" stroke-miterlimit="10" points="
		147.658,164.741 146.475,164.125 146.501,165.084 147.658,165.633 	"/>
	
		<polygon fill="#F1F1F2" stroke="#231F20" stroke-width="0.1245" stroke-linecap="round" stroke-linejoin="round" stroke-miterlimit="10" points="
		140.408,167.241 146.475,164.125 146.501,165.084 140.179,168.342 	"/>
	
		<polygon fill="#BBBDBF" stroke="#231F20" stroke-width="0.1245" stroke-linecap="round" stroke-linejoin="round" stroke-miterlimit="10" points="
		140.408,167.241 132.019,162.677 131.777,163.653 140.179,168.342 	"/>
	
		<polygon fill="#404041" stroke="#231F20" stroke-width="0.1245" stroke-linecap="round" stroke-linejoin="round" stroke-miterlimit="10" points="
		145.461,164.645 143.068,165.875 143.068,160.926 145.461,159.681 	"/>
	
		<polygon fill="#1B75BB" stroke="#231F20" stroke-width="0.1245" stroke-linecap="round" stroke-linejoin="round" stroke-miterlimit="10" points="
		144.816,162.792 143.81,163.303 143.81,161.575 144.816,161.049 	"/>
	
		<polygon fill="#1B75BB" stroke="#231F20" stroke-width="0.1245" stroke-linecap="round" stroke-linejoin="round" stroke-miterlimit="10" points="
		143.114,156.268 157.107,149.152 155.31,148.127 141.278,155.334 	"/>
</g>
</svg>
