<?xml version="1.0" encoding="utf-8"?>
<!-- Generator: Adobe Illustrator 16.0.0, SVG Export Plug-In . SVG Version: 6.00 Build 0)  -->
<!DOCTYPE svg PUBLIC "-//W3C//DTD SVG 1.1//EN" "http://www.w3.org/Graphics/SVG/1.1/DTD/svg11.dtd">
<svg version="1.1" xmlns="http://www.w3.org/2000/svg" xmlns:xlink="http://www.w3.org/1999/xlink" x="0px" y="0px" width="213px"
	 height="288px" viewBox="0 0 213 288" enable-background="new 0 0 213 288" xml:space="preserve">
<g id="Layer_3">
	<polygon fill="#17629E" points="68.457,148.749 61.418,185.85 45.365,127.121 68.457,128.207 	"/>
	<polygon fill="#196BAC" points="107.375,162.649 61.418,185.85 68.457,148.749 68.457,142.905 	"/>
	<polygon fill="#17629E" points="143.684,148.749 150.723,185.85 167.159,127.554 143.684,128.207 	"/>
	<polygon fill="#196BAC" points="104.765,162.649 150.723,185.85 143.684,148.749 143.684,142.905 	"/>
	<polygon fill="#1C75BC" points="109.021,204.709 61.418,185.85 106.07,163.308 151.468,185.85 	"/>
</g>
<g id="Layer_2">
	<path fill="#9FD5E7" d="M167.375,126.121c0,13.368-60.02,37.941-60.02,37.941s-62.101-24.574-62.101-37.941
		c0-13.368,27.338-24.205,61.06-24.205C140.037,101.917,167.375,112.753,167.375,126.121z"/>
</g>
<g id="Layer_1">
	<path fill="#196BAC" d="M141.36,132.159c-3.626-2.248-7.248-4.505-10.901-6.709c-2.715-1.638-3.868-4.145-4.024-7.161
		c-0.037-0.712-0.063-1.424-0.083-2.137l-8.875-3.631l-19.813,10.864l29.215,12.342c0.065,0.009,0.131,0.02,0.197,0.029
		c4.116,0.574,8.244,0.734,12.37,0.161c1.066-0.148,2.133-0.462,3.136-0.86c0.943-0.374,1.029-1.092,0.292-1.788
		C142.422,132.843,141.891,132.488,141.36,132.159z"/>
	<path fill="#17629E" d="M109.609,60.064l3.876-2.482c-0.892-2.714-1.869-5.398-2.922-8.059c-0.85-2.147-2.322-3.61-4.391-4.465
		c-2.351-0.972-4.736-1.516-7.157-1.581l-2.838,1.989L109.609,60.064z"/>
	<path fill="#1C75BC" d="M121.218,72.681c-0.553-1.934-1.219-3.833-2.126-5.649c-0.97-1.94-2.114-3.753-3.844-5.116
		c-0.386-0.304-0.609-0.657-0.748-1.121c-0.323-1.077-0.663-2.147-1.014-3.214l-3.876,2.482L121.218,72.681z"/>
	<path fill="#196BAC" d="M125.457,96.569c-0.08-0.841-0.16-1.682-0.246-2.521c-0.238-2.336-0.41-4.689-0.831-6.995
		c-0.347-1.899-0.725-3.794-1.124-5.684l-13.252,6.998L125.457,96.569z"/>
	<path fill="#1C75BC" d="M126.353,116.152c-0.062-2.199-0.064-4.402-0.138-6.602c-0.02-0.594-0.046-1.188-0.067-1.783l-8.67,4.754
		L126.353,116.152z"/>
	<path fill="#0D4E80" d="M117.477,112.521l-29.985-12.267l-7.043,3.719c0.487,2.193,1.223,4.327,2.117,6.412
		c1.061,2.473,2.027,4.977,2.445,7.654l12.654,5.346L117.477,112.521z"/>
	<path fill="#17629E" d="M82.714,131.583c-0.316,0.786-0.61,1.577-0.596,2.45c0.009,0.521,0.223,0.917,0.752,1.028
		c0.595,0.125,1.203,0.272,1.804,0.266c2.002-0.02,4.004-0.107,6.006-0.164c2.407-0.068,21.415-0.352,22.307-0.516
		c2.228-0.41,4.46-0.219,6.677,0.046c2.411,0.289,4.809,0.694,7.214,1.034l-29.215-12.342L82.714,131.583z"/>
	<path fill="#196BAC" d="M110.004,88.367L85.625,75.426l-1.646,1.054c-0.012,0.033-0.023,0.066-0.035,0.1
		c-1.952,5.629-3.781,11.295-4.125,17.296c-0.061,1.065-0.086,2.137-0.075,3.208l7.749,3.17L110.004,88.367z"/>
	<path fill="#1C75BC" d="M79.743,97.084c0.011,1.099,0.061,2.196,0.149,3.286c0.1,1.221,0.293,2.42,0.556,3.603l7.043-3.719
		L79.743,97.084z"/>
	<path fill="#1C75BC" d="M85.01,118.04c0.014,0.088,0.032,0.175,0.044,0.264c0.232,1.646,0.18,3.248-0.791,4.679
		c-0.686,1.011-1.426,1.984-2.135,2.979c-0.411,0.576-0.884,1.124-1.192,1.752c-0.392,0.798-0.153,1.315,0.615,1.778
		c0.535,0.323,1.06,0.664,1.615,1.013c-0.117,0.271-0.219,0.494-0.31,0.721c-0.048,0.119-0.095,0.238-0.143,0.357l14.95-8.197
		L85.01,118.04z"/>
	<path fill="#0D4E80" d="M94.726,43.889c-0.417,0.093-0.834,0.188-1.254,0.312c-2.16,0.642-3.834,1.967-5.293,3.615
		c-0.219,0.247-0.435,0.324-0.763,0.332c-1.703,0.042-3.413,0.04-5.104,0.209c-3.032,0.305-5.989,1.036-8.936,1.788
		c-0.496,0.127-0.969,0.339-1.454,0.512c0.142,0.146,0.249,0.19,0.359,0.223c2.139,0.636,4.338,0.785,6.538,0.599
		c2.009-0.169,3.675,0.449,5.14,1.758c0.166,0.148,0.308,0.313,0.466,0.466l11.753-8.238L94.726,43.889z"/>
	<path fill="#1C75BC" d="M99.015,43.477c-1.417-0.038-2.847,0.091-4.289,0.412l1.451,1.577L99.015,43.477z"/>
	<path fill="#196BAC" d="M109.609,60.064L96.177,45.466l-11.753,8.238c1.696,1.642,3.019,3.571,4.201,5.61
		c0.233,0.4,0.31,0.795,0.214,1.229c-0.369,1.676-0.625,3.389-1.145,5.018c-0.995,3.115-2.075,6.202-3.151,9.291l1.081,0.574
		L109.609,60.064z"/>
	<path fill="#1C75BC" d="M84.544,74.852c-0.189,0.542-0.377,1.085-0.565,1.628l1.646-1.054L84.544,74.852z"/>
	<polygon fill="none" points="109.446,88.071 109.448,88.661 110.004,88.367 	"/>
	<path fill="#17629E" d="M123.256,81.369c-0.399-1.892-0.82-3.779-1.253-5.663c-0.233-1.016-0.499-2.024-0.785-3.025l-11.609-12.617
		l-0.233,0.149l0.07,27.857l0.558,0.296L123.256,81.369z"/>
	<polygon fill="#0D4E80" points="85.625,75.426 109.446,88.071 109.376,60.213 	"/>
	<polygon fill="#17629E" points="87.492,100.254 109.5,109.257 109.448,88.661 	"/>
	<path fill="#1C75BC" d="M126.147,107.767c-0.082-2.218-0.175-4.436-0.315-6.65c-0.096-1.518-0.23-3.033-0.375-4.548l-15.453-8.202
		l-0.556,0.294l0.052,20.597l7.978,3.264L126.147,107.767z"/>
	<path fill="none" stroke="#001E43" stroke-width="0.5" stroke-miterlimit="10" d="M142.874,133.27
		c-0.452-0.427-0.983-0.782-1.514-1.111c-3.626-2.248-7.248-4.505-10.901-6.709c-2.715-1.638-3.868-4.145-4.024-7.161
		c-0.037-0.712-0.063-1.424-0.083-2.137c-0.062-2.199-0.064-4.402-0.138-6.602c-0.02-0.594-0.046-1.188-0.067-1.783
		c-0.082-2.218-0.175-4.436-0.315-6.65c-0.096-1.518-0.23-3.033-0.375-4.548c-0.08-0.841-0.16-1.682-0.246-2.521
		c-0.238-2.336-0.41-4.689-0.831-6.995c-0.347-1.899-0.725-3.794-1.124-5.684c-0.399-1.892-0.82-3.779-1.253-5.663
		c-0.233-1.016-0.499-2.024-0.785-3.025c-0.553-1.934-1.219-3.833-2.126-5.649c-0.97-1.94-2.114-3.753-3.844-5.116
		c-0.386-0.304-0.609-0.657-0.748-1.121c-0.323-1.077-0.663-2.147-1.014-3.214c-0.892-2.714-1.869-5.398-2.922-8.059
		c-0.85-2.147-2.322-3.61-4.391-4.465c-2.351-0.972-4.736-1.516-7.157-1.581c-1.417-0.038-2.847,0.091-4.289,0.412
		c-0.417,0.093-0.834,0.188-1.254,0.312c-2.16,0.642-3.834,1.967-5.293,3.615c-0.219,0.247-0.435,0.324-0.763,0.332
		c-1.703,0.042-3.413,0.04-5.104,0.209c-3.032,0.305-5.989,1.036-8.936,1.788c-0.496,0.127-0.969,0.339-1.454,0.512
		c0.142,0.146,0.249,0.19,0.359,0.223c2.139,0.636,4.338,0.785,6.538,0.599c2.009-0.169,3.675,0.449,5.14,1.758
		c0.166,0.148,0.308,0.313,0.466,0.466c1.696,1.642,3.019,3.571,4.201,5.61c0.233,0.4,0.31,0.795,0.214,1.229
		c-0.369,1.676-0.625,3.389-1.145,5.018c-0.995,3.115-2.075,6.202-3.151,9.291c-0.189,0.542-0.377,1.085-0.565,1.628
		c-0.012,0.033-0.023,0.066-0.035,0.1c-1.952,5.629-3.781,11.295-4.125,17.296c-0.061,1.065-0.086,2.137-0.075,3.208
		c0.011,1.099,0.061,2.196,0.149,3.286c0.1,1.221,0.293,2.42,0.556,3.603c0.487,2.193,1.223,4.327,2.117,6.412
		c1.061,2.473,2.027,4.977,2.445,7.654c0.014,0.088,0.032,0.175,0.044,0.264c0.232,1.646,0.18,3.248-0.791,4.679
		c-0.686,1.011-1.426,1.984-2.135,2.979c-0.411,0.576-0.884,1.124-1.192,1.752c-0.392,0.798-0.153,1.315,0.615,1.778
		c0.535,0.323,1.06,0.664,1.615,1.013c-0.117,0.271-0.219,0.494-0.31,0.721c-0.048,0.119-0.095,0.238-0.143,0.357
		c-0.316,0.786-0.61,1.577-0.596,2.45c0.009,0.521,0.223,0.917,0.752,1.028c0.595,0.125,1.203,0.272,1.804,0.266
		c2.002-0.02,4.004-0.107,6.006-0.164c2.407-0.068,21.415-0.352,22.307-0.516c2.228-0.41,4.46-0.219,6.677,0.046
		c2.411,0.289,4.809,0.694,7.214,1.034c0.065,0.009,0.131,0.02,0.197,0.029c4.116,0.574,8.244,0.734,12.37,0.161
		c1.066-0.148,2.133-0.462,3.136-0.86C143.525,134.684,143.611,133.965,142.874,133.27z"/>
</g>
<g id="Layer_6">
</g>
</svg>
