<?xml version="1.0" standalone="no"?>
<!DOCTYPE svg PUBLIC "-//W3C//DTD SVG 20010904//EN"
 "http://www.w3.org/TR/2001/REC-SVG-20010904/DTD/svg10.dtd">
<svg version="1.0" xmlns="http://www.w3.org/2000/svg"
 width="260.000000pt" height="260.000000pt" viewBox="0 0 260.000000 260.000000"
 preserveAspectRatio="xMidYMid meet">
<metadata>
Created by potrace 1.11, written by Peter Selinger 2001-2013
</metadata>
<g transform="translate(0.000000,260.000000) scale(0.100000,-0.100000)"
fill="#000000" stroke="none">
<path d="M1115 2376 c-17 -7 -36 -20 -44 -29 -8 -11 -28 -17 -53 -17 -51 0
-178 -29 -178 -41 0 -8 14 -11 80 -14 54 -3 81 -17 110 -57 18 -25 30 -53 30
-72 0 -17 -20 -88 -44 -158 -88 -252 -95 -357 -36 -517 38 -104 38 -144 0
-194 -27 -36 -31 -67 -8 -67 5 0 7 -12 3 -28 -4 -18 -1 -33 7 -39 9 -7 86 -9
238 -4 171 6 250 4 330 -7 123 -16 235 -12 257 11 14 14 11 18 -25 44 -22 15
-67 45 -101 65 -91 56 -91 58 -101 275 -10 194 -26 315 -61 441 -22 83 -37
116 -72 158 -13 16 -37 66 -52 112 -32 92 -60 127 -114 142 -50 14 -130 12
-166 -4z"/>
<path d="M494 1191 c3 -9 48 -176 101 -371 53 -195 102 -360 108 -366 14 -13
622 -254 641 -254 6 0 138 56 291 124 201 90 281 130 284 143 1 10 48 177 102
370 54 194 99 356 99 360 0 4 -21 -13 -47 -39 -65 -63 -180 -137 -337 -219
-164 -85 -392 -189 -414 -189 -27 0 -292 118 -452 201 -166 86 -267 150 -334
212 -25 24 -44 37 -42 28z"/>
</g>
</svg>
